<svg id="SvgjsSvg1001" width="288" height="288" xmlns="http://www.w3.org/2000/svg" version="1.1" xmlns:xlink="http://www.w3.org/1999/xlink" xmlns:svgjs="http://svgjs.com/svgjs"><defs id="SvgjsDefs1002"></defs><g id="SvgjsG1008"><svg xmlns="http://www.w3.org/2000/svg" fill-rule="evenodd" clip-rule="evenodd" image-rendering="optimizeQuality" shape-rendering="geometricPrecision" text-rendering="geometricPrecision" viewBox="0 0 512 512" width="288" height="288"><path d="M 254.5,6.5 C 261.572,6.80075 268.238,8.63408 274.5,12C 304.024,35.0248 333.691,57.8581 363.5,80.5C 381.49,61.0086 399.323,41.342 417,21.5C 434.928,3.1152 454.095,1.78187 474.5,17.5C 489.972,39.6606 487.305,59.494 466.5,77C 449.833,91.6667 433.167,106.333 416.5,121C 440.881,140.383 465.548,159.383 490.5,178C 505.104,189.873 507.271,203.706 497,219.5C 489.517,226.717 480.684,229.384 470.5,227.5C 470.667,318.501 470.5,409.501 470,500.5C 468.681,502.487 466.848,503.654 464.5,504C 325.167,504.667 185.833,504.667 46.5,504C 44.6711,503.727 43.1711,502.893 42,501.5C 40.5051,410.248 40.0051,318.915 40.5,227.5C 21.2797,229.281 10.2797,220.614 7.5,201.5C 7.69274,194.782 9.85941,188.782 14,183.5C 26.4868,173.591 39.1534,163.924 52,154.5C 52.5,123.835 52.6666,93.1685 52.5,62.5C 47.5884,62.9369 42.9217,62.1036 38.5,60C 37.8742,59.2496 37.3742,58.4162 37,57.5C 36.3333,42.8333 36.3333,28.1667 37,13.5C 38.1667,12.3333 39.3333,11.1667 40.5,10C 76.5,9.33333 112.5,9.33333 148.5,10C 149.333,10.8333 150.167,11.6667 151,12.5C 152.595,26.4444 152.928,40.4444 152,54.5C 151.934,57.2756 150.768,59.4423 148.5,61C 145.243,62.0429 141.91,62.5429 138.5,62.5C 138.334,71.1731 138.5,79.8397 139,88.5C 170.924,63.7874 202.757,38.9541 234.5,14C 240.595,9.65544 247.262,7.15544 254.5,6.5 Z M 69.5,62.5 C 86.8333,62.5 104.167,62.5 121.5,62.5C 121.667,75.5043 121.5,88.5043 121,101.5C 104,114.833 87,128.167 70,141.5C 69.5,115.169 69.3334,88.8354 69.5,62.5 Z M 253.5,65.5 C 254.873,65.3433 256.207,65.51 257.5,66C 280.667,83.8333 303.833,101.667 327,119.5C 327.667,120.5 327.667,121.5 327,122.5C 313.795,136.703 300.962,151.203 288.5,166C 267.064,165.122 251.897,174.289 243,193.5C 238.796,204.279 235.296,215.279 232.5,226.5C 193.171,227.333 153.838,227.833 114.5,228C 102.559,231.608 95.0586,239.441 92,251.5C 91.5,276.498 91.3334,301.498 91.5,326.5C 85.8236,326.334 80.1569,326.501 74.5,327C 72.3333,327.833 70.8333,329.333 70,331.5C 69.3333,365.833 69.3333,400.167 70,434.5C 70.7845,436.286 71.9512,437.786 73.5,439C 83.1609,439.5 92.8276,439.666 102.5,439.5C 102.046,450.603 102.546,461.603 104,472.5C 104.903,473.701 106.069,474.535 107.5,475C 121.833,475.667 136.167,475.667 150.5,475C 152.726,473.773 154.226,471.939 155,469.5C 155.5,459.506 155.666,449.506 155.5,439.5C 174.833,439.5 194.167,439.5 213.5,439.5C 213.333,450.172 213.5,460.839 214,471.5C 215.214,473.049 216.714,474.215 218.5,475C 232.167,475.667 245.833,475.667 259.5,475C 261.286,474.215 262.786,473.049 264,471.5C 265.453,460.937 265.953,450.27 265.5,439.5C 274.839,439.666 284.173,439.5 293.5,439C 295.333,438.5 296.5,437.333 297,435.5C 297.667,400.5 297.667,365.5 297,330.5C 295.833,329.333 294.667,328.167 293.5,327C 288.177,326.501 282.844,326.334 277.5,326.5C 277.167,302.158 277.5,277.824 278.5,253.5C 290.48,251.262 301.48,246.762 311.5,240C 321.217,229.864 326.05,217.697 326,203.5C 342.368,188.13 359.035,173.13 376,158.5C 402.181,178.592 428.181,198.925 454,219.5C 454.5,308.833 454.667,398.166 454.5,487.5C 321.833,487.5 189.167,487.5 56.5,487.5C 56.3333,397.499 56.5,307.499 57,217.5C 122.971,167.352 188.471,116.686 253.5,65.5 Z M 277.5,183.5 C 296.022,181.073 307.022,188.906 310.5,207C 309.782,217.788 304.782,225.788 295.5,231C 279.119,235.739 262.785,240.572 246.5,245.5C 248.932,229.704 253.098,214.371 259,199.5C 263.217,191.774 269.384,186.441 277.5,183.5 Z M 119.5,243.5 C 156.167,243.5 192.833,243.5 229.5,243.5C 228.447,250.144 227.947,256.81 228,263.5C 231.007,267.13 234.84,268.296 239.5,267C 246.626,264.019 253.792,261.186 261,258.5C 261.5,281.164 261.667,303.831 261.5,326.5C 255.048,326.084 248.715,326.584 242.5,328C 241.299,328.903 240.465,330.069 240,331.5C 239.501,336.489 239.334,341.489 239.5,346.5C 202.167,346.5 164.833,346.5 127.5,346.5C 127.666,341.156 127.499,335.823 127,330.5C 125.833,329.333 124.667,328.167 123.5,327C 118.511,326.501 113.511,326.334 108.5,326.5C 108.333,302.498 108.5,278.498 109,254.5C 110.711,248.959 114.211,245.292 119.5,243.5 Z M 370.5,324.5 C 375.833,324.5 381.167,324.5 386.5,324.5C 386.5,360.167 386.5,395.833 386.5,431.5C 381.167,431.5 375.833,431.5 370.5,431.5C 370.5,395.833 370.5,360.167 370.5,324.5 Z M 86.5,342.5 C 94.8333,342.5 103.167,342.5 111.5,342.5C 111.333,359.503 111.5,376.503 112,393.5C 112.465,394.931 113.299,396.097 114.5,397C 137.581,398.157 160.748,398.657 184,398.5C 207.252,398.657 230.419,398.157 253.5,397C 254.126,396.25 254.626,395.416 255,394.5C 255.5,377.17 255.667,359.837 255.5,342.5C 263.5,342.5 271.5,342.5 279.5,342.5C 279.5,369.5 279.5,396.5 279.5,423.5C 215.167,423.5 150.833,423.5 86.5,423.5C 86.5,396.5 86.5,369.5 86.5,342.5 Z M 127.5,363.5 C 164.833,363.5 202.167,363.5 239.5,363.5C 239.5,370.167 239.5,376.833 239.5,383.5C 202.167,383.5 164.833,383.5 127.5,383.5C 127.5,376.833 127.5,370.167 127.5,363.5 Z" opacity=".966" fill="#4d52a0" class="color000 svgShape"></path><path d="M 188.5,128.5 C 191.978,128.184 195.312,128.684 198.5,130C 202.878,136.587 206.878,143.42 210.5,150.5C 217.003,154.586 223.67,158.419 230.5,162C 235.712,166.963 235.712,171.963 230.5,177C 223.67,180.581 217.003,184.414 210.5,188.5C 206.878,195.58 202.878,202.413 198.5,209C 194.219,211.109 190.052,210.942 186,208.5C 182.702,201.709 179.202,195.042 175.5,188.5C 168.5,184.333 161.5,180.167 154.5,176C 150.397,171.057 150.731,166.391 155.5,162C 162.33,158.419 168.997,154.586 175.5,150.5C 178.867,142.408 183.2,135.075 188.5,128.5 Z" opacity=".955" fill="#4d52a0" class="color000 svgShape"></path><path d="M 353.5,225.5 C 370.17,225.333 386.837,225.5 403.5,226C 404.416,226.374 405.25,226.874 406,227.5C 417.138,255.247 428.471,282.914 440,310.5C 442.045,319.958 438.212,324.291 428.5,323.5C 428.667,345.836 428.5,368.169 428,390.5C 422.667,398.5 417.333,398.5 412,390.5C 411.5,368.169 411.333,345.836 411.5,323.5C 408.5,323.5 405.5,323.5 402.5,323.5C 402.5,359.5 402.5,395.5 402.5,431.5C 420.247,428.747 427.913,436.247 425.5,454C 428.415,464.838 424.748,472.171 414.5,476C 390.167,476.667 365.833,476.667 341.5,476C 336.427,474.594 332.927,471.428 331,466.5C 330.333,457.833 330.333,449.167 331,440.5C 332.5,436.333 335.333,433.5 339.5,432C 344.155,431.501 348.821,431.334 353.5,431.5C 353.5,395.5 353.5,359.5 353.5,323.5C 342.162,323.667 330.828,323.5 319.5,323C 316.484,321.471 315.151,318.971 315.5,315.5C 325.968,286.601 337.135,257.934 349,229.5C 350.397,227.93 351.897,226.596 353.5,225.5 Z M 370.5,324.5 C 370.5,360.167 370.5,395.833 370.5,431.5C 375.833,431.5 381.167,431.5 386.5,431.5C 386.5,395.833 386.5,360.167 386.5,324.5C 381.167,324.5 375.833,324.5 370.5,324.5 Z" opacity=".965" fill="#4d52a0" class="color000 svgShape"></path><path d="M 177.5,258.5 C 180.649,258.211 183.649,258.711 186.5,260C 190.544,265.919 194.211,272.086 197.5,278.5C 204.084,282.375 210.584,286.375 217,290.5C 219,294.167 219,297.833 217,301.5C 211.239,305.633 205.073,309.133 198.5,312C 194.873,318.085 191.373,324.252 188,330.5C 184.205,333.803 180.038,334.303 175.5,332C 171.367,326.239 167.867,320.073 165,313.5C 158.915,309.873 152.748,306.373 146.5,303C 142.301,297.719 142.634,292.719 147.5,288C 153.49,285.34 159.156,282.174 164.5,278.5C 167.254,273.992 169.754,269.326 172,264.5C 173.36,261.977 175.193,259.977 177.5,258.5 Z" opacity=".951" fill="#4d52a0" class="color000 svgShape"></path></svg></g></svg>