<?xml version="1.0" encoding="UTF-8"?>
<!DOCTYPE svg PUBLIC "-//W3C//DTD SVG 1.1//EN" "http://www.w3.org/Graphics/SVG/1.1/DTD/svg11.dtd">
<svg xmlns="http://www.w3.org/2000/svg" version="1.1" width="512px" height="512px" style="shape-rendering:geometricPrecision; text-rendering:geometricPrecision; image-rendering:optimizeQuality; fill-rule:evenodd; clip-rule:evenodd" xmlns:xlink="http://www.w3.org/1999/xlink">
<g><path style="opacity:0.966" fill="#0556d5" d="M 128.5,48.5 C 148.992,50.0258 169.325,52.8591 189.5,57C 193.395,57.9332 195.562,60.4332 196,64.5C 196.977,95.2278 196.643,125.895 195,156.5C 194.535,157.931 193.701,159.097 192.5,160C 175.562,170.607 158.896,181.607 142.5,193C 139.119,195.245 135.452,195.912 131.5,195C 113.833,183.333 96.1667,171.667 78.5,160C 76.5125,158.681 75.3459,156.848 75,154.5C 74.3333,124.167 74.3333,93.8333 75,63.5C 75.8333,60 78,57.8333 81.5,57C 97.3803,54.5774 113.047,51.7441 128.5,48.5 Z"/></g>
<g><path style="opacity:1" fill="#fcfdfe" d="M 127.5,66.5 C 144.53,67.589 161.363,69.9223 178,73.5C 178.667,98.1667 178.667,122.833 178,147.5C 163.926,157.242 149.593,166.576 135,175.5C 120.927,166.88 107.094,157.88 93.5,148.5C 92.5002,123.175 92.1669,97.8421 92.5,72.5C 104.384,71.02 116.051,69.02 127.5,66.5 Z"/></g>
<g><path style="opacity:1" fill="#11b8ff" d="M 132.5,83.5 C 135.32,83.2475 137.986,83.7475 140.5,85C 151.064,96.6279 158.064,110.128 161.5,125.5C 159.505,141.495 150.505,150.495 134.5,152.5C 113.461,147.943 105.961,135.276 112,114.5C 116.884,102.691 123.717,92.3577 132.5,83.5 Z"/></g>
<g><path style="opacity:1" fill="#91ebff" d="M 134.5,108.5 C 139.422,113.173 142.422,119.006 143.5,126C 142.602,133.125 138.602,135.792 131.5,134C 128.335,131.844 126.668,128.844 126.5,125C 128.509,119.149 131.176,113.649 134.5,108.5 Z"/></g>
<g><path style="opacity:0.96" fill="#0256d5" d="M 370.5,255.5 C 364.5,255.5 358.5,255.5 352.5,255.5C 352.667,216.832 352.5,178.165 352,139.5C 346.715,132.848 341.381,132.848 336,139.5C 335.5,178.165 335.333,216.832 335.5,255.5C 329.833,255.5 324.167,255.5 318.5,255.5C 318.5,252.5 318.5,249.5 318.5,246.5C 318.5,241.167 318.5,235.833 318.5,230.5C 318.823,224.31 318.49,218.31 317.5,212.5C 317.333,189.164 317.5,165.831 318,142.5C 320.75,123.762 331.583,115.596 350.5,118C 361.666,121.497 368.166,128.997 370,140.5C 370.5,178.832 370.667,217.165 370.5,255.5 Z"/></g>
<g><path style="opacity:1" fill="#98b1fa" d="M 352.5,255.5 C 346.833,255.5 341.167,255.5 335.5,255.5C 335.333,216.832 335.5,178.165 336,139.5C 341.381,132.848 346.715,132.848 352,139.5C 352.5,178.165 352.667,216.832 352.5,255.5 Z"/></g>
<g><path style="opacity:0.994" fill="#0eb7fe" d="M 317.5,212.5 C 318.49,218.31 318.823,224.31 318.5,230.5C 252.5,230.5 186.5,230.5 120.5,230.5C 120.5,235.833 120.5,241.167 120.5,246.5C 186.5,246.5 252.5,246.5 318.5,246.5C 318.5,249.5 318.5,252.5 318.5,255.5C 314.818,255.335 311.152,255.501 307.5,256C 304.251,257.08 302.251,259.247 301.5,262.5C 300.833,262.5 300.5,262.833 300.5,263.5C 243.167,263.5 185.833,263.5 128.5,263.5C 128.5,272.5 128.5,281.5 128.5,290.5C 175.167,290.5 221.833,290.5 268.5,290.5C 270.117,291.038 271.784,291.371 273.5,291.5C 266.63,294.85 261.796,300.183 259,307.5C 258.5,327.831 258.333,348.164 258.5,368.5C 258.167,368.5 257.833,368.5 257.5,368.5C 257.5,348.167 257.5,327.833 257.5,307.5C 214.833,307.5 172.167,307.5 129.5,307.5C 128.502,335.995 128.169,364.662 128.5,393.5C 170.5,393.5 212.5,393.5 254.5,393.5C 254.5,394.833 254.5,396.167 254.5,397.5C 254.817,401.702 254.483,405.702 253.5,409.5C 211.833,409.5 170.167,409.5 128.5,409.5C 128.172,421.345 128.505,433.012 129.5,444.5C 135.842,444.334 142.175,444.5 148.5,445C 152.597,446.922 154.93,450.088 155.5,454.5C 155.456,458.09 153.789,460.59 150.5,462C 139.167,462.667 127.833,462.667 116.5,462C 114.622,460.457 113.122,458.624 112,456.5C 111.5,392.501 111.333,328.501 111.5,264.5C 106.6,264.102 103.767,261.435 103,256.5C 102.076,243.11 102.409,229.777 104,216.5C 105.167,215.333 106.333,214.167 107.5,213C 177.499,212.5 247.499,212.333 317.5,212.5 Z"/></g>
<g><path style="opacity:1" fill="#fefefe" d="M 318.5,230.5 C 318.5,235.833 318.5,241.167 318.5,246.5C 252.5,246.5 186.5,246.5 120.5,246.5C 120.5,241.167 120.5,235.833 120.5,230.5C 186.5,230.5 252.5,230.5 318.5,230.5 Z"/></g>
<g><path style="opacity:0.995" fill="#fd8120" d="M 318.5,255.5 C 324.167,255.5 329.833,255.5 335.5,255.5C 341.167,255.5 346.833,255.5 352.5,255.5C 358.5,255.5 364.5,255.5 370.5,255.5C 374.514,255.334 378.514,255.501 382.5,256C 383.931,256.465 385.097,257.299 386,258.5C 387.451,268.729 387.951,279.062 387.5,289.5C 387.665,293.182 387.499,296.848 387,300.5C 386.303,302.584 385.136,304.251 383.5,305.5C 382.527,305.987 381.527,306.487 380.5,307C 355.457,307.814 330.457,307.648 305.5,306.5C 303.748,304.754 302.415,302.754 301.5,300.5C 301.5,296.833 301.5,293.167 301.5,289.5C 301.5,280.5 301.5,271.5 301.5,262.5C 302.251,259.247 304.251,257.08 307.5,256C 311.152,255.501 314.818,255.335 318.5,255.5 Z"/></g>
<g><path style="opacity:1" fill="#95ecfe" d="M 301.5,262.5 C 301.5,271.5 301.5,280.5 301.5,289.5C 293.648,289.175 285.982,289.508 278.5,290.5C 276.784,290.629 275.117,290.962 273.5,291.5C 271.784,291.371 270.117,291.038 268.5,290.5C 222.336,289.501 176.003,289.168 129.5,289.5C 129.5,281.167 129.5,272.833 129.5,264.5C 186.669,264.832 243.669,264.499 300.5,263.5C 300.5,262.833 300.833,262.5 301.5,262.5 Z"/></g>
<g><path style="opacity:1" fill="#fffefd" d="M 318.5,272.5 C 335.833,272.5 353.167,272.5 370.5,272.5C 370.5,278.167 370.5,283.833 370.5,289.5C 353.167,289.5 335.833,289.5 318.5,289.5C 318.5,283.833 318.5,278.167 318.5,272.5 Z"/></g>
<g><path style="opacity:1" fill="#31c8ff" d="M 300.5,263.5 C 243.669,264.499 186.669,264.832 129.5,264.5C 129.5,272.833 129.5,281.167 129.5,289.5C 176.003,289.168 222.336,289.501 268.5,290.5C 221.833,290.5 175.167,290.5 128.5,290.5C 128.5,281.5 128.5,272.5 128.5,263.5C 185.833,263.5 243.167,263.5 300.5,263.5 Z"/></g>
<g><path style="opacity:1" fill="#5083cc" d="M 278.5,290.5 C 285.982,289.508 293.648,289.175 301.5,289.5C 301.5,293.167 301.5,296.833 301.5,300.5C 300.521,297.375 300.187,294.042 300.5,290.5C 293.167,290.5 285.833,290.5 278.5,290.5 Z"/></g>
<g><path style="opacity:0.994" fill="#0056d4" d="M 387.5,289.5 C 395.174,289.334 402.841,289.5 410.5,290C 422.128,293.624 428.628,301.458 430,313.5C 431.147,330.815 431.647,348.148 431.5,365.5C 430.645,368.175 429.478,370.842 428,373.5C 426.67,374.582 425.17,375.249 423.5,375.5C 370.833,375.5 318.167,375.5 265.5,375.5C 261.5,374.833 259.167,372.5 258.5,368.5C 258.333,348.164 258.5,327.831 259,307.5C 261.796,300.183 266.63,294.85 273.5,291.5C 275.117,290.962 276.784,290.629 278.5,290.5C 285.833,290.5 293.167,290.5 300.5,290.5C 300.187,294.042 300.521,297.375 301.5,300.5C 302.415,302.754 303.748,304.754 305.5,306.5C 296.724,306.059 288.058,306.559 279.5,308C 277.951,309.214 276.785,310.714 276,312.5C 275.501,316.152 275.335,319.818 275.5,323.5C 321.33,324.499 367.33,324.832 413.5,324.5C 413.817,320.298 413.483,316.298 412.5,312.5C 411.607,309.539 409.607,307.706 406.5,307C 398.656,306.829 390.989,306.329 383.5,305.5C 385.136,304.251 386.303,302.584 387,300.5C 387.499,296.848 387.665,293.182 387.5,289.5 Z"/></g>
<g><path style="opacity:1" fill="#fdfefe" d="M 129.5,307.5 C 172.167,307.5 214.833,307.5 257.5,307.5C 257.5,327.833 257.5,348.167 257.5,368.5C 256.884,376.506 256.218,384.506 255.5,392.5C 213.5,392.5 171.5,392.5 129.5,392.5C 129.5,364.167 129.5,335.833 129.5,307.5 Z"/></g>
<g><path style="opacity:1" fill="#98b1fa" d="M 383.5,305.5 C 390.989,306.329 398.656,306.829 406.5,307C 409.607,307.706 411.607,309.539 412.5,312.5C 412.5,316.167 412.5,319.833 412.5,323.5C 366.833,323.5 321.167,323.5 275.5,323.5C 275.335,319.818 275.501,316.152 276,312.5C 276.785,310.714 277.951,309.214 279.5,308C 288.058,306.559 296.724,306.059 305.5,306.5C 330.457,307.648 355.457,307.814 380.5,307C 381.527,306.487 382.527,305.987 383.5,305.5 Z"/></g>
<g><path style="opacity:1" fill="#5c8dec" d="M 412.5,312.5 C 413.483,316.298 413.817,320.298 413.5,324.5C 367.33,324.832 321.33,324.499 275.5,323.5C 321.167,323.5 366.833,323.5 412.5,323.5C 412.5,319.833 412.5,316.167 412.5,312.5 Z"/></g>
<g><path style="opacity:1" fill="#06b7ff" d="M 151.5,324.5 C 179.835,324.333 208.169,324.5 236.5,325C 243.394,330.841 243.061,336.175 235.5,341C 207.5,341.667 179.5,341.667 151.5,341C 144.843,335.327 144.843,329.827 151.5,324.5 Z"/></g>
<g><path style="opacity:1" fill="#99b2fb" d="M 412.5,341.5 C 412.5,347.167 412.5,352.833 412.5,358.5C 366.833,358.5 321.167,358.5 275.5,358.5C 275.5,352.833 275.5,347.167 275.5,341.5C 321.167,341.5 366.833,341.5 412.5,341.5 Z"/></g>
<g><path style="opacity:1" fill="#0bb7ff" d="M 151.5,358.5 C 165.171,358.333 178.837,358.5 192.5,359C 200.061,363.825 200.394,369.159 193.5,375C 179.5,375.667 165.5,375.667 151.5,375C 146.931,372.459 145.431,368.625 147,363.5C 148.707,361.963 150.207,360.296 151.5,358.5 Z"/></g>
<g><path style="opacity:1" fill="#427de5" d="M 412.5,341.5 C 413.49,347.31 413.823,353.31 413.5,359.5C 367.33,359.832 321.33,359.499 275.5,358.5C 321.167,358.5 366.833,358.5 412.5,358.5C 412.5,352.833 412.5,347.167 412.5,341.5 Z"/></g>
<g><path style="opacity:0.981" fill="#fe801d" d="M 431.5,365.5 C 433.199,385.66 434.866,405.826 436.5,426C 436.13,446.092 426.13,458.092 406.5,462C 381.169,462.5 355.836,462.667 330.5,462.5C 313.338,461.668 296.005,461.168 278.5,461C 269.233,457.877 261.9,452.377 256.5,444.5C 255.242,441.228 254.075,437.894 253,434.5C 252.567,426.491 252.734,418.491 253.5,410.5C 253.5,410.167 253.5,409.833 253.5,409.5C 254.483,405.702 254.817,401.702 254.5,397.5C 255.451,396.081 255.784,394.415 255.5,392.5C 256.218,384.506 256.884,376.506 257.5,368.5C 257.833,368.5 258.167,368.5 258.5,368.5C 259.167,372.5 261.5,374.833 265.5,375.5C 268.287,376.477 271.287,376.81 274.5,376.5C 272.448,392.782 270.782,409.116 269.5,425.5C 269.235,434.407 273.235,440.573 281.5,444C 323.167,444.667 364.833,444.667 406.5,444C 415.445,440.618 419.778,434.118 419.5,424.5C 417.437,408.535 415.77,392.535 414.5,376.5C 417.713,376.81 420.713,376.477 423.5,375.5C 425.17,375.249 426.67,374.582 428,373.5C 429.478,370.842 430.645,368.175 431.5,365.5 Z"/></g>
<g><path style="opacity:1" fill="#fdc994" d="M 265.5,375.5 C 318.167,375.5 370.833,375.5 423.5,375.5C 420.713,376.477 417.713,376.81 414.5,376.5C 415.77,392.535 417.437,408.535 419.5,424.5C 419.778,434.118 415.445,440.618 406.5,444C 364.833,444.667 323.167,444.667 281.5,444C 273.235,440.573 269.235,434.407 269.5,425.5C 270.782,409.116 272.448,392.782 274.5,376.5C 271.287,376.81 268.287,376.477 265.5,375.5 Z"/></g>
<g><path style="opacity:1" fill="#ff801c" d="M 301.5,376.5 C 307.167,376.5 312.833,376.5 318.5,376.5C 318.667,391.504 318.5,406.504 318,421.5C 315.647,426.426 311.814,428.26 306.5,427C 304.43,426.052 302.93,424.552 302,422.5C 301.5,407.17 301.333,391.837 301.5,376.5 Z"/></g>
<g><path style="opacity:1" fill="#ff801c" d="M 335.5,376.5 C 341.167,376.5 346.833,376.5 352.5,376.5C 352.667,391.837 352.5,407.17 352,422.5C 349.337,426.725 345.504,428.225 340.5,427C 338.622,425.457 337.122,423.624 336,421.5C 335.5,406.504 335.333,391.504 335.5,376.5 Z"/></g>
<g><path style="opacity:1" fill="#ff801c" d="M 370.5,376.5 C 376.167,376.5 381.833,376.5 387.5,376.5C 387.667,391.504 387.5,406.504 387,421.5C 382.043,428.997 376.71,429.33 371,422.5C 370.5,407.17 370.333,391.837 370.5,376.5 Z"/></g>
<g><path style="opacity:1" fill="#a7e4fd" d="M 129.5,307.5 C 129.5,335.833 129.5,364.167 129.5,392.5C 171.5,392.5 213.5,392.5 255.5,392.5C 255.784,394.415 255.451,396.081 254.5,397.5C 254.5,396.167 254.5,394.833 254.5,393.5C 212.5,393.5 170.5,393.5 128.5,393.5C 128.169,364.662 128.502,335.995 129.5,307.5 Z"/></g>
<g><path style="opacity:1" fill="#3dcdff" d="M 253.5,409.5 C 253.5,409.833 253.5,410.167 253.5,410.5C 212.167,410.5 170.833,410.5 129.5,410.5C 129.5,421.833 129.5,433.167 129.5,444.5C 128.505,433.012 128.172,421.345 128.5,409.5C 170.167,409.5 211.833,409.5 253.5,409.5 Z"/></g>
<g><path style="opacity:1" fill="#95ecfe" d="M 253.5,410.5 C 252.734,418.491 252.567,426.491 253,434.5C 254.075,437.894 255.242,441.228 256.5,444.5C 241.496,444.333 226.496,444.5 211.5,445C 207.848,447.145 206.182,450.311 206.5,454.5C 200.833,454.5 195.167,454.5 189.5,454.5C 189.311,448.644 186.311,445.311 180.5,444.5C 174.758,445.295 171.758,448.629 171.5,454.5C 166.167,454.5 160.833,454.5 155.5,454.5C 154.93,450.088 152.597,446.922 148.5,445C 142.175,444.5 135.842,444.334 129.5,444.5C 129.5,433.167 129.5,421.833 129.5,410.5C 170.833,410.5 212.167,410.5 253.5,410.5 Z"/></g>
<g><path style="opacity:0.955" fill="#05b8ff" d="M 189.5,454.5 C 189.018,459.516 186.184,462.182 181,462.5C 175.828,462.158 172.662,459.492 171.5,454.5C 171.758,448.629 174.758,445.295 180.5,444.5C 186.311,445.311 189.311,448.644 189.5,454.5 Z"/></g>
<g><path style="opacity:0.986" fill="#18b5fa" d="M 256.5,444.5 C 261.9,452.377 269.233,457.877 278.5,461C 296.005,461.168 313.338,461.668 330.5,462.5C 291.165,462.667 251.832,462.5 212.5,462C 208.469,461.097 206.469,458.597 206.5,454.5C 206.182,450.311 207.848,447.145 211.5,445C 226.496,444.5 241.496,444.333 256.5,444.5 Z"/></g>
</svg>
