<?xml version="1.0" encoding="UTF-8"?>
<!DOCTYPE svg PUBLIC "-//W3C//DTD SVG 1.1//EN" "http://www.w3.org/Graphics/SVG/1.1/DTD/svg11.dtd">
<svg xmlns="http://www.w3.org/2000/svg" version="1.1" width="512px" height="512px" style="shape-rendering:geometricPrecision; text-rendering:geometricPrecision; image-rendering:optimizeQuality; fill-rule:evenodd; clip-rule:evenodd" xmlns:xlink="http://www.w3.org/1999/xlink">
<g><path style="opacity:0.994" fill="#020202" d="M 63.5,-0.5 C 179.833,-0.5 296.167,-0.5 412.5,-0.5C 414.604,1.37183 415.937,3.70516 416.5,6.5C 415.892,9.95832 413.892,12.4583 410.5,14C 375.168,14.5 339.835,14.6667 304.5,14.5C 224.109,14.0085 143.776,14.5085 63.5,16C 52.8468,20.6528 45.6801,28.4861 42,39.5C 41.5,65.8312 41.3334,92.1646 41.5,118.5C 44.1656,118.067 46.8323,117.567 49.5,117C 86.7417,86.184 127.742,80.184 172.5,99C 182.5,105 192.5,111 202.5,117C 210.296,119.293 217.963,121.959 225.5,125C 228.692,127.028 231.359,129.528 233.5,132.5C 236.108,138.243 236.941,144.243 236,150.5C 234.56,154.547 232.726,158.38 230.5,162C 242.318,198.253 237.984,232.419 217.5,264.5C 207.412,278.92 194.745,290.587 179.5,299.5C 193.931,307.486 208.931,309.486 224.5,305.5C 226.811,299.855 230.811,295.855 236.5,293.5C 239.107,285.62 242.774,278.286 247.5,271.5C 240.454,255.185 243.454,241.018 256.5,229C 258.568,228.313 260.568,228.48 262.5,229.5C 266.912,221.592 271.912,214.092 277.5,207C 284.439,206.27 287.939,209.436 288,216.5C 292.193,213.715 296.193,214.048 300,217.5C 300.483,218.448 300.649,219.448 300.5,220.5C 300.343,221.873 300.51,223.207 301,224.5C 305.219,220.466 309.219,220.799 313,225.5C 313.333,227.5 313.667,229.5 314,231.5C 323.186,227.433 327.186,230.433 326,240.5C 322.113,246.439 318.613,252.606 315.5,259C 319.471,264.204 319.305,269.371 315,274.5C 310.48,283.855 303.313,290.188 293.5,293.5C 306.202,327.182 330.536,344.015 366.5,344C 367.308,343.692 367.975,343.192 368.5,342.5C 365.08,337.15 366.08,332.984 371.5,330C 381.833,329.667 392.167,329.333 402.5,329C 406.212,326.487 407.378,322.987 406,318.5C 405.167,317.667 404.333,316.833 403.5,316C 397.833,315 392.167,314 386.5,313C 384.129,310.326 382.963,307.159 383,303.5C 382.167,302.667 381.333,301.833 380.5,301C 371.527,299.969 362.527,298.969 353.5,298C 335.753,288.092 331.253,273.925 340,255.5C 344.768,249.872 350.601,245.872 357.5,243.5C 414.305,242.182 450.139,214.182 465,159.5C 470.921,116.903 457.088,82.4026 423.5,56C 403.307,42.2153 380.974,36.0486 356.5,37.5C 326.79,39.77 302.623,52.4367 284,75.5C 281.371,79.1151 279.204,82.9485 277.5,87C 278.141,90.9773 280.308,93.8107 284,95.5C 284.875,96.8732 285.375,98.3732 285.5,100C 277.589,119.237 275.422,139.07 279,159.5C 283.625,163.646 287.959,163.313 292,158.5C 292.066,150.729 292.733,143.062 294,135.5C 294.903,134.299 296.069,133.465 297.5,133C 300.903,132.9 304.07,132.066 307,130.5C 313.363,103.3 330.196,87.2997 357.5,82.5C 395.608,82.4461 416.941,101.279 421.5,139C 420.615,166.202 407.615,184.869 382.5,195C 374.328,197.334 365.995,198.501 357.5,198.5C 343.956,199.736 331.622,204.236 320.5,212C 317.225,212.982 314.559,212.149 312.5,209.5C 310.195,206.616 310.029,203.616 312,200.5C 323.533,192.096 336.366,186.596 350.5,184C 368.884,186.208 384.384,180.708 397,167.5C 410.92,146.461 409.42,126.628 392.5,108C 376.024,95.5761 358.691,94.2428 340.5,104C 330.253,111.604 324.086,121.771 322,134.5C 319.239,140.426 314.739,144.426 308.5,146.5C 310.129,164.516 302.129,174.849 284.5,177.5C 273.297,176.316 266.131,170.316 263,159.5C 260.975,140.417 262.808,121.75 268.5,103.5C 265.239,98.474 263.239,92.974 262.5,87C 262.656,82.8641 263.823,79.0308 266,75.5C 293.168,36.3375 330.668,18.8375 378.5,23C 437.795,34.2957 471.962,69.7957 481,129.5C 482.879,184.908 459.045,224.741 409.5,249C 393.122,255.452 376.122,258.786 358.5,259C 349.036,265.498 348.036,273.165 355.5,282C 356.833,282.667 358.167,283.333 359.5,284C 366.5,284.333 373.5,284.667 380.5,285C 388.257,287.087 393.924,291.754 397.5,299C 414.501,300.997 422.334,310.497 421,327.5C 418.833,336.333 413.333,341.833 404.5,344C 397.833,344.333 391.167,344.667 384.5,345C 380.004,355.008 372.171,359.841 361,359.5C 323.304,356.455 296.638,337.788 281,303.5C 277.523,309.31 273.023,314.143 267.5,318C 265.652,325.909 262.818,333.409 259,340.5C 252.896,346.038 245.73,349.372 237.5,350.5C 216.156,354.167 195.156,352.834 174.5,346.5C 173.791,345.596 172.791,345.263 171.5,345.5C 171.5,359.5 171.5,373.5 171.5,387.5C 170.923,392.237 169.923,396.904 168.5,401.5C 173.928,420.446 176.595,439.779 176.5,459.5C 189.167,459.5 201.833,459.5 214.5,459.5C 213.767,446.4 212.267,433.4 210,420.5C 197.533,414.566 192.866,404.899 196,391.5C 198.899,384.268 204.066,379.435 211.5,377C 223.495,376.5 235.495,376.333 247.5,376.5C 274.502,376.333 301.502,376.5 328.5,377C 332.281,377.924 335.781,379.424 339,381.5C 342.258,380.12 345.425,378.62 348.5,377C 387.833,376.333 427.167,376.333 466.5,377C 482.819,383.812 487.319,395.312 480,411.5C 476.851,415.651 472.851,418.651 468,420.5C 466.316,433.486 464.816,446.486 463.5,459.5C 480.378,458.461 491.211,449.794 496,433.5C 496.667,302.167 496.667,170.833 496,39.5C 491.738,26.9043 483.238,18.7377 470.5,15C 458.833,14.6667 447.167,14.3333 435.5,14C 432.722,12.2872 431.055,9.78719 430.5,6.5C 430.571,3.34772 431.905,1.01439 434.5,-0.5C 447.833,-0.5 461.167,-0.5 474.5,-0.5C 493.5,5.16667 505.833,17.5 511.5,36.5C 511.5,170.167 511.5,303.833 511.5,437.5C 504.1,461.557 487.767,473.89 462.5,474.5C 463.078,486.047 459.745,496.214 452.5,505C 449.067,507.711 445.4,509.877 441.5,511.5C 419.167,511.5 396.833,511.5 374.5,511.5C 364.414,507.911 357.914,500.911 355,490.5C 354.237,485.275 353.403,480.108 352.5,475C 343.506,474.5 334.506,474.334 325.5,474.5C 326.078,486.047 322.745,496.214 315.5,505C 312.067,507.711 308.4,509.877 304.5,511.5C 282.167,511.5 259.833,511.5 237.5,511.5C 221.974,504.82 214.807,492.82 216,475.5C 206.56,474.183 197.06,474.183 187.5,475.5C 193.048,492.4 187.715,504.4 171.5,511.5C 160.833,511.5 150.167,511.5 139.5,511.5C 123.471,504.27 117.804,492.104 122.5,475C 116.472,474.17 110.472,474.336 104.5,475.5C 109.773,492.381 104.44,504.381 88.5,511.5C 75.5,511.5 62.5,511.5 49.5,511.5C 33.4847,503.98 27.9847,491.647 33,474.5C 35.7097,470.247 38.543,466.08 41.5,462C 33.6968,455.231 28.8635,446.731 27,436.5C 26.3333,427.5 26.3333,418.5 27,409.5C 28.5088,407.081 30.6755,406.081 33.5,406.5C 37.0897,406.544 39.5897,408.211 41,411.5C 41.3333,418.833 41.6667,426.167 42,433.5C 43.3646,439.231 46.0313,444.231 50,448.5C 56.4787,436.399 60.9787,423.566 63.5,410C 61.0602,403.009 59.2268,395.843 58,388.5C 57.3333,367.833 57.3333,347.167 58,326.5C 59.8895,316.556 64.0562,307.723 70.5,300C 60.182,293.584 50.682,286.084 42,277.5C 41.6667,313.5 41.3333,349.5 41,385.5C 40.1501,389.513 37.6501,391.513 33.5,391.5C 30.9009,391.451 28.7342,390.451 27,388.5C 26.6667,345.167 26.3333,301.833 26,258.5C 12.1759,248.851 3.34256,235.851 -0.5,219.5C -0.5,201.833 -0.5,184.167 -0.5,166.5C 2.88054,149.776 11.5472,136.442 25.5,126.5C 26.3332,96.5056 26.8332,66.5056 27,36.5C 32.3491,17.3182 44.5158,4.98489 63.5,-0.5 Z"/></g>
<g><path style="opacity:1" fill="#c7a9f0" d="M 416.5,6.5 C 421.167,6.5 425.833,6.5 430.5,6.5C 431.055,9.78719 432.722,12.2872 435.5,14C 447.167,14.3333 458.833,14.6667 470.5,15C 483.238,18.7377 491.738,26.9043 496,39.5C 496.667,170.833 496.667,302.167 496,433.5C 491.211,449.794 480.378,458.461 463.5,459.5C 464.816,446.486 466.316,433.486 468,420.5C 472.851,418.651 476.851,415.651 480,411.5C 487.319,395.312 482.819,383.812 466.5,377C 427.167,376.333 387.833,376.333 348.5,377C 345.425,378.62 342.258,380.12 339,381.5C 335.781,379.424 332.281,377.924 328.5,377C 301.502,376.5 274.502,376.333 247.5,376.5C 243.605,368.044 240.272,359.378 237.5,350.5C 245.73,349.372 252.896,346.038 259,340.5C 262.818,333.409 265.652,325.909 267.5,318C 273.023,314.143 277.523,309.31 281,303.5C 296.638,337.788 323.304,356.455 361,359.5C 372.171,359.841 380.004,355.008 384.5,345C 391.167,344.667 397.833,344.333 404.5,344C 413.333,341.833 418.833,336.333 421,327.5C 422.334,310.497 414.501,300.997 397.5,299C 393.924,291.754 388.257,287.087 380.5,285C 373.5,284.667 366.5,284.333 359.5,284C 358.167,283.333 356.833,282.667 355.5,282C 348.036,273.165 349.036,265.498 358.5,259C 376.122,258.786 393.122,255.452 409.5,249C 459.045,224.741 482.879,184.908 481,129.5C 471.962,69.7957 437.795,34.2957 378.5,23C 330.668,18.8375 293.168,36.3375 266,75.5C 263.823,79.0308 262.656,82.8641 262.5,87C 263.239,92.974 265.239,98.474 268.5,103.5C 262.808,121.75 260.975,140.417 263,159.5C 266.131,170.316 273.297,176.316 284.5,177.5C 302.129,174.849 310.129,164.516 308.5,146.5C 314.739,144.426 319.239,140.426 322,134.5C 324.086,121.771 330.253,111.604 340.5,104C 358.691,94.2428 376.024,95.5761 392.5,108C 409.42,126.628 410.92,146.461 397,167.5C 384.384,180.708 368.884,186.208 350.5,184C 336.366,186.596 323.533,192.096 312,200.5C 310.029,203.616 310.195,206.616 312.5,209.5C 307.848,212.486 303.848,216.153 300.5,220.5C 300.649,219.448 300.483,218.448 300,217.5C 296.193,214.048 292.193,213.715 288,216.5C 287.939,209.436 284.439,206.27 277.5,207C 271.912,214.092 266.912,221.592 262.5,229.5C 260.568,228.48 258.568,228.313 256.5,229C 243.454,241.018 240.454,255.185 247.5,271.5C 242.774,278.286 239.107,285.62 236.5,293.5C 230.811,295.855 226.811,299.855 224.5,305.5C 221.214,292.12 218.881,278.453 217.5,264.5C 237.984,232.419 242.318,198.253 230.5,162C 232.726,158.38 234.56,154.547 236,150.5C 236.941,144.243 236.108,138.243 233.5,132.5C 249.014,88.1169 272.681,48.7836 304.5,14.5C 339.835,14.6667 375.168,14.5 410.5,14C 413.892,12.4583 415.892,9.95832 416.5,6.5 Z"/></g>
<g><path style="opacity:1" fill="#b189e3" d="M 304.5,14.5 C 272.681,48.7836 249.014,88.1169 233.5,132.5C 231.359,129.528 228.692,127.028 225.5,125C 217.963,121.959 210.296,119.293 202.5,117C 192.5,111 182.5,105 172.5,99C 127.742,80.184 86.7417,86.184 49.5,117C 46.8323,117.567 44.1656,118.067 41.5,118.5C 41.3334,92.1646 41.5,65.8312 42,39.5C 45.6801,28.4861 52.8468,20.6528 63.5,16C 143.776,14.5085 224.109,14.0085 304.5,14.5 Z"/></g>
<g><path style="opacity:1" fill="#f9e09e" d="M 356.5,37.5 C 349.621,52.6661 349.954,67.6661 357.5,82.5C 330.196,87.2997 313.363,103.3 307,130.5C 304.07,132.066 300.903,132.9 297.5,133C 296.069,133.465 294.903,134.299 294,135.5C 292.733,143.062 292.066,150.729 292,158.5C 287.959,163.313 283.625,163.646 279,159.5C 275.422,139.07 277.589,119.237 285.5,100C 285.375,98.3732 284.875,96.8732 284,95.5C 280.308,93.8107 278.141,90.9773 277.5,87C 279.204,82.9485 281.371,79.1151 284,75.5C 302.623,52.4367 326.79,39.77 356.5,37.5 Z"/></g>
<g><path style="opacity:1" fill="#fdefd2" d="M 356.5,37.5 C 380.974,36.0486 403.307,42.2153 423.5,56C 457.088,82.4026 470.921,116.903 465,159.5C 450.139,214.182 414.305,242.182 357.5,243.5C 349.506,228.445 349.506,213.445 357.5,198.5C 365.995,198.501 374.328,197.334 382.5,195C 407.615,184.869 420.615,166.202 421.5,139C 416.941,101.279 395.608,82.4461 357.5,82.5C 349.954,67.6661 349.621,52.6661 356.5,37.5 Z"/></g>
<g><path style="opacity:1" fill="#4b5597" d="M 124.5,103.5 C 106.001,124.332 94.0008,148.499 88.5,176C 88.5143,177.385 88.8476,178.551 89.5,179.5C 89.0831,180.124 88.4164,180.457 87.5,180.5C 62.1945,172.902 45.3612,181.569 37,206.5C 35.3139,222.961 41.4806,235.461 55.5,244C 43.6013,249.18 33.4346,247.013 25,237.5C 15.4128,223.686 11.9128,208.353 14.5,191.5C 11.0009,158.283 25.3342,137.783 57.5,130C 76.4008,112.641 98.7341,103.808 124.5,103.5 Z"/></g>
<g><path style="opacity:1" fill="#666eb0" d="M 124.5,103.5 C 137.65,103.64 150.317,106.14 162.5,111C 174.833,118 187.167,125 199.5,132C 205.048,134.072 210.715,135.738 216.5,137C 222.236,141.343 222.903,146.343 218.5,152C 191.803,160.909 168.803,155.242 149.5,135C 138.106,134.15 135.439,138.65 141.5,148.5C 126.199,162.112 108.865,172.445 89.5,179.5C 88.8476,178.551 88.5143,177.385 88.5,176C 94.0008,148.499 106.001,124.332 124.5,103.5 Z"/></g>
<g><path style="opacity:1" fill="#fcdbcd" d="M 124.5,298.5 C 109.458,282.096 98.7918,263.096 92.5,241.5C 95.9931,235.804 94.6598,231.637 88.5,229C 84.8871,228.792 81.5537,229.792 78.5,232C 60.5447,234.376 51.7114,226.542 52,208.5C 59.1451,192.184 70.6451,188.184 86.5,196.5C 111.507,188.085 134.007,175.418 154,158.5C 172.844,170.554 193.177,173.887 215,168.5C 215.772,168.645 216.439,168.978 217,169.5C 223.134,185.935 223.967,202.602 219.5,219.5C 216.842,216.006 213.342,214.006 209,213.5C 203.18,215.004 201.18,218.671 203,224.5C 206.773,228.783 210.94,232.45 215.5,235.5C 198.497,275.519 168.163,296.519 124.5,298.5 Z"/></g>
<g><path style="opacity:1" fill="#f9e09e" d="M 357.5,198.5 C 349.506,213.445 349.506,228.445 357.5,243.5C 350.601,245.872 344.768,249.872 340,255.5C 331.253,273.925 335.753,288.092 353.5,298C 362.527,298.969 371.527,299.969 380.5,301C 381.333,301.833 382.167,302.667 383,303.5C 382.963,307.159 384.129,310.326 386.5,313C 392.167,314 397.833,315 403.5,316C 404.333,316.833 405.167,317.667 406,318.5C 407.378,322.987 406.212,326.487 402.5,329C 392.167,329.333 381.833,329.667 371.5,330C 366.08,332.984 365.08,337.15 368.5,342.5C 367.975,343.192 367.308,343.692 366.5,344C 330.536,344.015 306.202,327.182 293.5,293.5C 303.313,290.188 310.48,283.855 315,274.5C 319.305,269.371 319.471,264.204 315.5,259C 318.613,252.606 322.113,246.439 326,240.5C 327.186,230.433 323.186,227.433 314,231.5C 313.667,229.5 313.333,227.5 313,225.5C 309.219,220.799 305.219,220.466 301,224.5C 300.51,223.207 300.343,221.873 300.5,220.5C 303.848,216.153 307.848,212.486 312.5,209.5C 314.559,212.149 317.225,212.982 320.5,212C 331.622,204.236 343.956,199.736 357.5,198.5 Z"/></g>
<g><path style="opacity:1" fill="#050404" d="M 167.5,227.5 C 161.888,229.858 158.221,228.192 156.5,222.5C 156.334,216.824 156.501,211.157 157,205.5C 161.333,200.167 165.667,200.167 170,205.5C 170.667,212.167 170.667,218.833 170,225.5C 169.292,226.381 168.458,227.047 167.5,227.5 Z"/></g>
<g><path style="opacity:1" fill="#fe8e9e" d="M 156.5,222.5 C 158.221,228.192 161.888,229.858 167.5,227.5C 175.945,234.95 177.779,243.95 173,254.5C 162.547,266.312 149.714,269.812 134.5,265C 119.667,258.817 115.167,248.317 121,233.5C 130.404,222.088 142.237,218.422 156.5,222.5 Z"/></g>
<g><path style="opacity:1" fill="#fbc8bb" d="M 92.5,241.5 C 98.7918,263.096 109.458,282.096 124.5,298.5C 93.5131,297.838 68.1798,285.671 48.5,262C 54.1958,260.492 59.8625,258.825 65.5,257C 74.5595,251.808 83.5595,246.641 92.5,241.5 Z"/></g>
<g><path style="opacity:1" fill="#e5596d" d="M 261.5,246.5 C 274.637,253.903 287.637,261.57 300.5,269.5C 298.637,273.53 295.637,276.363 291.5,278C 286.718,278.119 282.051,278.785 277.5,280C 273.125,287.251 268.625,294.418 264,301.5C 260.877,297.538 257.043,294.538 252.5,292.5C 255.748,286.336 259.248,280.336 263,274.5C 264.198,270.191 263.198,266.524 260,263.5C 257.682,257.539 258.182,251.872 261.5,246.5 Z"/></g>
<g><path style="opacity:1" fill="#af88e0" d="M 217.5,264.5 C 218.881,278.453 221.214,292.12 224.5,305.5C 208.931,309.486 193.931,307.486 179.5,299.5C 194.745,290.587 207.412,278.92 217.5,264.5 Z"/></g>
<g><path style="opacity:1" fill="#af88e1" d="M 33.5,406.5 C 33.5,401.5 33.5,396.5 33.5,391.5C 37.6501,391.513 40.1501,389.513 41,385.5C 41.3333,349.5 41.6667,313.5 42,277.5C 50.682,286.084 60.182,293.584 70.5,300C 64.0562,307.723 59.8895,316.556 58,326.5C 57.3333,347.167 57.3333,367.833 58,388.5C 59.2268,395.843 61.0602,403.009 63.5,410C 60.9787,423.566 56.4787,436.399 50,448.5C 46.0313,444.231 43.3646,439.231 42,433.5C 41.6667,426.167 41.3333,418.833 41,411.5C 39.5897,408.211 37.0897,406.544 33.5,406.5 Z"/></g>
<g><path style="opacity:1" fill="#e85a6f" d="M 122.5,313.5 C 119.259,317.987 117.092,322.987 116,328.5C 115.5,343.83 115.333,359.163 115.5,374.5C 101.167,374.5 86.8333,374.5 72.5,374.5C 72.3334,358.83 72.5001,343.163 73,327.5C 75.0884,318.966 79.4218,311.966 86,306.5C 97.814,310.662 109.981,312.995 122.5,313.5 Z"/></g>
<g><path style="opacity:1" fill="#f8d7c9" d="M 242.5,306.5 C 248.013,305.91 251.347,308.244 252.5,313.5C 251.643,320.115 249.643,326.282 246.5,332C 234.252,336.874 221.585,338.374 208.5,336.5C 210.114,331.98 210.78,327.313 210.5,322.5C 217.533,322.497 224.533,321.997 231.5,321C 233.286,320.215 234.786,319.049 236,317.5C 236.671,312.806 238.838,309.139 242.5,306.5 Z"/></g>
<g><path style="opacity:1" fill="#fc8c9c" d="M 115.5,374.5 C 115.333,359.163 115.5,343.83 116,328.5C 117.092,322.987 119.259,317.987 122.5,313.5C 135.615,313.257 148.448,311.257 161,307.5C 166.851,310.175 172.684,313.008 178.5,316C 183.992,318.221 189.659,319.721 195.5,320.5C 195.884,325.337 195.217,330.003 193.5,334.5C 179.865,333.204 167.199,328.704 155.5,321C 151.102,319.622 147.602,320.788 145,324.5C 144.275,327.377 144.775,330.043 146.5,332.5C 149.413,334.875 152.58,336.875 156,338.5C 156.5,350.495 156.667,362.495 156.5,374.5C 142.833,374.5 129.167,374.5 115.5,374.5 Z"/></g>
<g><path style="opacity:1" fill="#6e568e" d="M 174.5,346.5 C 172.839,359.969 171.839,373.636 171.5,387.5C 171.5,373.5 171.5,359.5 171.5,345.5C 172.791,345.263 173.791,345.596 174.5,346.5 Z"/></g>
<g><path style="opacity:1" fill="#b189e2" d="M 174.5,346.5 C 195.156,352.834 216.156,354.167 237.5,350.5C 240.272,359.378 243.605,368.044 247.5,376.5C 235.495,376.333 223.495,376.5 211.5,377C 204.066,379.435 198.899,384.268 196,391.5C 192.866,404.899 197.533,414.566 210,420.5C 212.267,433.4 213.767,446.4 214.5,459.5C 201.833,459.5 189.167,459.5 176.5,459.5C 176.595,439.779 173.928,420.446 168.5,401.5C 169.923,396.904 170.923,392.237 171.5,387.5C 171.839,373.636 172.839,359.969 174.5,346.5 Z"/></g>
<g><path style="opacity:1" fill="#172123" d="M 73.5,389.5 C 100.995,388.502 128.662,388.169 156.5,388.5C 156.737,389.791 156.404,390.791 155.5,391.5C 142.876,389.519 129.876,388.852 116.5,389.5C 102.167,389.5 87.8333,389.5 73.5,389.5 Z"/></g>
<g><path style="opacity:1" fill="#7be1fd" d="M 73.5,389.5 C 87.8333,389.5 102.167,389.5 116.5,389.5C 117.783,397.351 120.45,404.684 124.5,411.5C 121.07,413.935 119.404,417.269 119.5,421.5C 115.971,423.423 111.971,424.089 107.5,423.5C 88.5547,419.708 77.2214,408.375 73.5,389.5 Z"/></g>
<g><path style="opacity:1" fill="#b6ecfb" d="M 116.5,389.5 C 129.876,388.852 142.876,389.519 155.5,391.5C 154.397,394.551 153.731,397.718 153.5,401C 157.025,413.959 159.525,427.126 161,440.5C 161.816,449.079 161.649,457.579 160.5,466C 153.654,470.325 146.821,470.491 140,466.5C 140.585,449.513 138.585,432.846 134,416.5C 132.055,412.61 128.888,410.943 124.5,411.5C 120.45,404.684 117.783,397.351 116.5,389.5 Z"/></g>
<g><path style="opacity:1" fill="#fbcb6f" d="M 239.5,391.5 C 238.217,396.469 238.217,401.469 239.5,406.5C 231.16,406.666 222.827,406.5 214.5,406C 207.833,401.333 207.833,396.667 214.5,392C 222.827,391.5 231.16,391.334 239.5,391.5 Z"/></g>
<g><path style="opacity:1" fill="#fbe29f" d="M 239.5,391.5 C 268.502,391.333 297.502,391.5 326.5,392C 331.143,394.072 332.643,397.572 331,402.5C 329.786,404.049 328.286,405.215 326.5,406C 321.054,406.101 315.721,406.768 310.5,408C 308.549,409.734 307.549,411.901 307.5,414.5C 296.419,414.19 285.419,414.523 274.5,415.5C 275.154,411.317 273.488,408.484 269.5,407C 259.506,406.5 249.506,406.334 239.5,406.5C 238.217,401.469 238.217,396.469 239.5,391.5 Z"/></g>
<g><path style="opacity:1" fill="#ebeafb" d="M 376.5,391.5 C 375.217,396.469 375.217,401.469 376.5,406.5C 368.16,406.666 359.827,406.5 351.5,406C 344.833,401.333 344.833,396.667 351.5,392C 359.827,391.5 368.16,391.334 376.5,391.5 Z"/></g>
<g><path style="opacity:1" fill="#fefefe" d="M 376.5,391.5 C 405.502,391.333 434.502,391.5 463.5,392C 468.143,394.072 469.643,397.572 468,402.5C 466.786,404.049 465.286,405.215 463.5,406C 458.5,406.333 453.5,406.667 448.5,407C 446.536,408.451 445.203,410.284 444.5,412.5C 439.244,413.784 433.744,414.451 428,414.5C 422.256,414.451 416.756,413.784 411.5,412.5C 410.746,409.909 409.079,408.076 406.5,407C 396.506,406.5 386.506,406.334 376.5,406.5C 375.217,401.469 375.217,396.469 376.5,391.5 Z"/></g>
<g><path style="opacity:1" fill="#fbcb6f" d="M 307.5,414.5 C 308.293,418.959 310.96,421.292 315.5,421.5C 315.564,427.254 314.898,432.92 313.5,438.5C 293.602,433.871 282.768,441.871 281,462.5C 275.309,468.293 270.643,467.626 267,460.5C 266.823,447.591 266.323,434.758 265.5,422C 270.013,421.758 273.013,419.592 274.5,415.5C 285.419,414.523 296.419,414.19 307.5,414.5 Z"/></g>
<g><path style="opacity:1" fill="#ebe9fb" d="M 411.5,412.5 C 416.756,413.784 422.256,414.451 428,414.5C 433.744,414.451 439.244,413.784 444.5,412.5C 444.358,418.024 447.025,421.024 452.5,421.5C 452.564,427.254 451.898,432.92 450.5,438.5C 430.592,433.883 419.759,441.883 418,462.5C 412.309,468.293 407.643,467.626 404,460.5C 403.823,447.591 403.323,434.758 402.5,422C 408.494,421.51 411.494,418.343 411.5,412.5 Z"/></g>
<g><path style="opacity:1" fill="#c3a5eb" d="M 337.5,416.5 C 341.87,417.098 345.37,419.098 348,422.5C 349.571,434.802 350.737,447.135 351.5,459.5C 343.167,459.5 334.833,459.5 326.5,459.5C 327.816,446.486 329.316,433.486 331,420.5C 333.617,419.781 335.784,418.447 337.5,416.5 Z"/></g>
<g><path style="opacity:1" fill="#9da1e1" d="M 259.5,476.5 C 259.065,483.33 259.731,489.996 261.5,496.5C 254.825,496.666 248.158,496.5 241.5,496C 238.063,494.895 235.563,492.728 234,489.5C 231.058,466.857 228.225,444.19 225.5,421.5C 232.508,421.334 239.508,421.5 246.5,422C 248.286,422.785 249.786,423.951 251,425.5C 251.333,437.5 251.667,449.5 252,461.5C 252.927,467.354 255.427,472.354 259.5,476.5 Z"/></g>
<g><path style="opacity:1" fill="#9da1e1" d="M 396.5,476.5 C 396.065,483.33 396.731,489.996 398.5,496.5C 391.825,496.666 385.158,496.5 378.5,496C 375.063,494.895 372.563,492.728 371,489.5C 368.058,466.857 365.225,444.19 362.5,421.5C 369.508,421.334 376.508,421.5 383.5,422C 385.286,422.785 386.786,423.951 388,425.5C 388.333,437.5 388.667,449.5 389,461.5C 389.927,467.354 392.427,472.354 396.5,476.5 Z"/></g>
<g><path style="opacity:1" fill="#4f90a2" d="M 119.5,421.5 C 120.404,422.209 120.737,423.209 120.5,424.5C 115.968,424.818 111.634,424.485 107.5,423.5C 111.971,424.089 115.971,423.423 119.5,421.5 Z"/></g>
<g><path style="opacity:1" fill="#2dcbf6" d="M 75.5,424.5 C 81.8122,428.994 88.4788,432.994 95.5,436.5C 93.7052,440.384 92.2052,444.384 91,448.5C 88.9263,454.732 86.093,460.565 82.5,466C 74.8389,469.315 66.8389,470.315 58.5,469C 57.6919,468.692 57.0253,468.192 56.5,467.5C 65.292,454.25 71.6253,439.916 75.5,424.5 Z"/></g>
<g><path style="opacity:1" fill="#ac85dc" d="M 120.5,438.5 C 121.5,438.5 122.5,438.5 123.5,438.5C 124.341,445.465 124.674,452.465 124.5,459.5C 117.159,459.666 109.826,459.5 102.5,459C 105.123,452.967 107.456,446.8 109.5,440.5C 113.313,439.833 116.979,439.166 120.5,438.5 Z"/></g>
<g><path style="opacity:1" fill="#b6b8ed" d="M 261.5,496.5 C 259.731,489.996 259.065,483.33 259.5,476.5C 275.432,485.455 287.599,481.788 296,465.5C 295.564,460.257 297.064,455.757 300.5,452C 304.836,450.8 308.336,451.967 311,455.5C 311.176,466.585 310.176,477.585 308,488.5C 306.407,492.428 303.573,494.928 299.5,496C 286.838,496.5 274.171,496.667 261.5,496.5 Z"/></g>
<g><path style="opacity:1" fill="#b6b8ed" d="M 398.5,496.5 C 396.731,489.996 396.065,483.33 396.5,476.5C 409.07,484.326 420.236,482.659 430,471.5C 432.845,466.925 434.178,461.925 434,456.5C 438.133,450.175 442.8,449.842 448,455.5C 448.176,466.585 447.176,477.585 445,488.5C 443.407,492.428 440.573,494.928 436.5,496C 423.838,496.5 411.171,496.667 398.5,496.5 Z"/></g>
<g><path style="opacity:1" fill="#fa8b9b" d="M 167.5,478.5 C 172.35,478.519 174.683,481.019 174.5,486C 174.369,490.943 172.036,494.276 167.5,496C 159.5,496.667 151.5,496.667 143.5,496C 137.869,493.239 135.536,488.739 136.5,482.5C 145.192,485.222 153.859,485.055 162.5,482C 164.584,481.303 166.251,480.136 167.5,478.5 Z"/></g>
<g><path style="opacity:1" fill="#e3586c" d="M 47.5,480.5 C 60.7598,485.736 74.0931,485.736 87.5,480.5C 89.4251,480.59 90.5917,481.59 91,483.5C 92.2234,489.885 89.7234,494.052 83.5,496C 73.5,496.667 63.5,496.667 53.5,496C 47.269,492.474 45.269,487.307 47.5,480.5 Z"/></g>
</svg>
