<?xml version="1.0" encoding="UTF-8"?>
<!DOCTYPE svg PUBLIC "-//W3C//DTD SVG 1.1//EN" "http://www.w3.org/Graphics/SVG/1.1/DTD/svg11.dtd">
<svg xmlns="http://www.w3.org/2000/svg" version="1.1" width="512px" height="512px" style="shape-rendering:geometricPrecision; text-rendering:geometricPrecision; image-rendering:optimizeQuality; fill-rule:evenodd; clip-rule:evenodd" xmlns:xlink="http://www.w3.org/1999/xlink">
<g><path style="opacity:0.957" fill="#000101" d="M 511.5,165.5 C 511.5,168.167 511.5,170.833 511.5,173.5C 508.444,177.241 504.444,178.407 499.5,177C 492.081,172.875 484.914,168.375 478,163.5C 477.667,257.5 477.333,351.5 477,445.5C 476.261,448.573 474.428,450.74 471.5,452C 458.833,452.667 446.167,452.667 433.5,452C 430.211,450.59 428.544,448.09 428.5,444.5C 429.322,442.611 430.155,440.611 431,438.5C 431.75,437.874 432.584,437.374 433.5,437C 442.494,436.5 451.494,436.334 460.5,436.5C 460.833,341.498 460.5,246.498 459.5,151.5C 422.201,128.698 385.034,105.698 348,82.5C 352.416,91.3109 357.416,99.9775 363,108.5C 363.976,112.327 363.143,115.66 360.5,118.5C 356.311,120.395 352.645,119.728 349.5,116.5C 338.207,98.0786 326.541,79.912 314.5,62C 295.667,50.5 276.833,39 258,27.5C 189.25,69.1257 120.416,110.626 51.5,152C 50.5084,168.423 50.1751,184.923 50.5,201.5C 50.5,279.833 50.5,358.167 50.5,436.5C 142.501,436.333 234.501,436.5 326.5,437C 327.416,437.374 328.25,437.874 329,438.5C 329.845,440.611 330.678,442.611 331.5,444.5C 330.943,447.792 329.276,450.292 326.5,452C 230.086,452.995 133.752,452.662 37.5,451C 35.5125,449.681 34.3459,447.848 34,445.5C 33.8333,351.832 33.3333,258.165 32.5,164.5C 24.6196,169.941 16.2863,174.608 7.5,178.5C 4.32743,178.052 1.66076,176.719 -0.5,174.5C -0.5,171.167 -0.5,167.833 -0.5,164.5C 85.2866,112.19 171.453,60.5238 258,9.5C 259.888,9.79603 261.722,10.296 263.5,11C 287.916,26.292 312.416,41.4586 337,56.5C 337.333,46.1667 337.667,35.8333 338,25.5C 338.465,24.0692 339.299,22.9025 340.5,22C 360.744,20.3575 381.077,20.0241 401.5,21C 403.81,22.6374 405.31,24.804 406,27.5C 406.333,51.5 406.667,75.5 407,99.5C 439.915,120.376 473.082,140.876 506.5,161C 508.659,162.059 510.326,163.559 511.5,165.5 Z"/></g>
<g><path style="opacity:1" fill="#2dcccd" d="M 360.5,118.5 C 367.41,130.746 374.743,142.746 382.5,154.5C 381.235,155.479 379.901,156.479 378.5,157.5C 374.026,149.385 368.693,141.885 362.5,135C 352.849,129.064 343.183,129.064 333.5,135C 263.335,179.583 193.002,223.917 122.5,268C 111.314,276.881 108.814,287.714 115,300.5C 118.303,305.969 121.803,311.302 125.5,316.5C 125.043,317.298 124.376,317.631 123.5,317.5C 114.931,304.706 106.598,291.706 98.5,278.5C 101.042,276.752 102.376,274.252 102.5,271C 100.745,266.657 98.578,262.491 96,258.5C 88.0829,246.335 80.4162,234.001 73,221.5C 69.898,217.647 66.0646,216.647 61.5,218.5C 58.0689,212.627 54.4022,206.96 50.5,201.5C 50.1751,184.923 50.5084,168.423 51.5,152C 120.416,110.626 189.25,69.1257 258,27.5C 276.833,39 295.667,50.5 314.5,62C 326.541,79.912 338.207,98.0786 349.5,116.5C 352.645,119.728 356.311,120.395 360.5,118.5 Z"/></g>
<g><path style="opacity:1" fill="#687693" d="M 389.5,37.5 C 377.833,37.5 366.167,37.5 354.5,37.5C 354.5,47.5 354.5,57.5 354.5,67.5C 353.506,57.3468 353.172,47.0135 353.5,36.5C 365.678,36.1716 377.678,36.5049 389.5,37.5 Z"/></g>
<g><path style="opacity:1" fill="#a8bfed" d="M 389.5,37.5 C 389.667,54.8365 389.5,72.1699 389,89.5C 377.351,82.2671 365.851,74.9337 354.5,67.5C 354.5,57.5 354.5,47.5 354.5,37.5C 366.167,37.5 377.833,37.5 389.5,37.5 Z"/></g>
<g><path style="opacity:1" fill="#a8bfed" d="M 428.5,444.5 C 424.167,444.5 419.833,444.5 415.5,444.5C 413.215,443.043 411.382,441.043 410,438.5C 392.956,410.13 375.122,382.297 356.5,355C 354.167,354.333 351.833,354.333 349.5,355C 345.332,357.25 341.332,359.75 337.5,362.5C 329.333,349.5 321.167,336.5 313,323.5C 303.953,312.836 293.12,310.669 280.5,317C 239.525,343.734 198.025,369.568 156,394.5C 153.594,394.297 151.594,393.297 150,391.5C 140.333,376.833 130.667,362.167 121,347.5C 120.333,344.833 120.333,342.167 121,339.5C 124.902,336.132 129.069,333.132 133.5,330.5C 137.235,335.626 140.735,340.959 144,346.5C 151.208,356.458 160.708,359.625 172.5,356C 246.17,310.5 319.503,264.5 392.5,218C 399.424,211.226 401.924,203.06 400,193.5C 396.1,186.036 391.934,178.703 387.5,171.5C 391.385,168.632 395.218,165.632 399,162.5C 401.565,153.392 398.065,149.559 388.5,151C 386.609,152.442 384.609,153.609 382.5,154.5C 374.743,142.746 367.41,130.746 360.5,118.5C 363.143,115.66 363.976,112.327 363,108.5C 357.416,99.9775 352.416,91.3109 348,82.5C 385.034,105.698 422.201,128.698 459.5,151.5C 460.5,246.498 460.833,341.498 460.5,436.5C 451.494,436.334 442.494,436.5 433.5,437C 432.584,437.374 431.75,437.874 431,438.5C 430.155,440.611 429.322,442.611 428.5,444.5 Z"/></g>
<g><path style="opacity:0.995" fill="#020303" d="M 382.5,154.5 C 384.609,153.609 386.609,152.442 388.5,151C 398.065,149.559 401.565,153.392 399,162.5C 395.218,165.632 391.385,168.632 387.5,171.5C 391.934,178.703 396.1,186.036 400,193.5C 401.924,203.06 399.424,211.226 392.5,218C 319.503,264.5 246.17,310.5 172.5,356C 160.708,359.625 151.208,356.458 144,346.5C 140.735,340.959 137.235,335.626 133.5,330.5C 129.069,333.132 124.902,336.132 121,339.5C 120.333,342.167 120.333,344.833 121,347.5C 130.667,362.167 140.333,376.833 150,391.5C 151.594,393.297 153.594,394.297 156,394.5C 198.025,369.568 239.525,343.734 280.5,317C 293.12,310.669 303.953,312.836 313,323.5C 321.167,336.5 329.333,349.5 337.5,362.5C 341.332,359.75 345.332,357.25 349.5,355C 351.833,354.333 354.167,354.333 356.5,355C 375.122,382.297 392.956,410.13 410,438.5C 411.382,441.043 413.215,443.043 415.5,444.5C 419.413,451.596 423.58,458.596 428,465.5C 428.817,468.964 428.483,472.298 427,475.5C 414.167,483.667 401.333,491.833 388.5,500C 383.644,502.496 379.478,501.662 376,497.5C 364.915,479.931 354.081,462.264 343.5,444.5C 331.495,425.65 319.662,406.65 308,387.5C 307.161,384.86 307.661,382.527 309.5,380.5C 314.204,377.154 318.871,373.821 323.5,370.5C 315.292,357.249 306.958,344.082 298.5,331C 294.333,328.914 290.333,329.247 286.5,332C 245.805,358.682 204.472,384.348 162.5,409C 151.571,411.617 142.738,408.45 136,399.5C 127.249,385.662 118.249,371.995 109,358.5C 102.034,346.356 103.2,335.189 112.5,325C 116.345,322.637 120.011,320.137 123.5,317.5C 124.376,317.631 125.043,317.298 125.5,316.5C 121.803,311.302 118.303,305.969 115,300.5C 108.814,287.714 111.314,276.881 122.5,268C 193.002,223.917 263.335,179.583 333.5,135C 343.183,129.064 352.849,129.064 362.5,135C 368.693,141.885 374.026,149.385 378.5,157.5C 379.901,156.479 381.235,155.479 382.5,154.5 Z"/></g>
<g><path style="opacity:1" fill="#28b2c7" d="M 344.5,146.5 C 350.859,145.932 355.359,148.599 358,154.5C 366,167.167 374,179.833 382,192.5C 384.753,196.333 385.086,200.333 383,204.5C 312.918,249.125 242.751,293.625 172.5,338C 168.589,341.597 164.256,342.263 159.5,340C 148.056,323.106 137.39,305.773 127.5,288C 127.625,286.373 128.125,284.873 129,283.5C 200.813,237.684 272.647,192.017 344.5,146.5 Z"/></g>
<g><path style="opacity:1" fill="#a7beec" d="M 50.5,201.5 C 54.4022,206.96 58.0689,212.627 61.5,218.5C 58.1385,222.396 57.6385,226.729 60,231.5C 69.5838,246.332 78.9171,261.332 88,276.5C 91.0789,279.485 94.5789,280.152 98.5,278.5C 106.598,291.706 114.931,304.706 123.5,317.5C 120.011,320.137 116.345,322.637 112.5,325C 103.2,335.189 102.034,346.356 109,358.5C 118.249,371.995 127.249,385.662 136,399.5C 142.738,408.45 151.571,411.617 162.5,409C 204.472,384.348 245.805,358.682 286.5,332C 290.333,329.247 294.333,328.914 298.5,331C 306.958,344.082 315.292,357.249 323.5,370.5C 318.871,373.821 314.204,377.154 309.5,380.5C 307.661,382.527 307.161,384.86 308,387.5C 319.662,406.65 331.495,425.65 343.5,444.5C 339.5,444.5 335.5,444.5 331.5,444.5C 330.678,442.611 329.845,440.611 329,438.5C 328.25,437.874 327.416,437.374 326.5,437C 234.501,436.5 142.501,436.333 50.5,436.5C 50.5,358.167 50.5,279.833 50.5,201.5 Z"/></g>
<g><path style="opacity:1" fill="#020405" d="M 98.5,278.5 C 94.5789,280.152 91.0789,279.485 88,276.5C 78.9171,261.332 69.5838,246.332 60,231.5C 57.6385,226.729 58.1385,222.396 61.5,218.5C 66.0646,216.647 69.898,217.647 73,221.5C 80.4162,234.001 88.0829,246.335 96,258.5C 98.578,262.491 100.745,266.657 102.5,271C 102.376,274.252 101.042,276.752 98.5,278.5 Z"/></g>
<g><path style="opacity:1" fill="#336fdc" d="M 348.5,373.5 C 351.091,374.254 352.924,375.921 354,378.5C 372.375,408.084 390.875,437.584 409.5,467C 401.833,471.833 394.167,476.667 386.5,481.5C 366.472,450.79 346.806,419.79 327.5,388.5C 334.353,383.245 341.353,378.245 348.5,373.5 Z"/></g>
</svg>
