<?xml version="1.0" encoding="UTF-8"?>
<!DOCTYPE svg PUBLIC "-//W3C//DTD SVG 1.1//EN" "http://www.w3.org/Graphics/SVG/1.1/DTD/svg11.dtd">
<svg xmlns="http://www.w3.org/2000/svg" version="1.1" width="512px" height="512px" style="shape-rendering:geometricPrecision; text-rendering:geometricPrecision; image-rendering:optimizeQuality; fill-rule:evenodd; clip-rule:evenodd" xmlns:xlink="http://www.w3.org/1999/xlink">
<g><path style="opacity:1" fill="#ebeff0" d="M 51.5,3.5 C 51.3333,54.1678 51.5,104.834 52,155.5C 54.2892,166.457 60.7892,173.624 71.5,177C 87.292,179.022 97.792,172.522 103,157.5C 103.333,147.833 103.667,138.167 104,128.5C 112.116,108.367 125.949,103.201 145.5,113C 149.877,117.043 153.044,121.876 155,127.5C 155.333,159.833 155.667,192.167 156,224.5C 162.316,245.073 175.482,251.24 195.5,243C 201.148,239.213 204.982,234.046 207,227.5C 207.333,209.167 207.667,190.833 208,172.5C 215.124,153.19 228.291,147.357 247.5,155C 253.285,159.122 257.118,164.622 259,171.5C 259.333,188.833 259.667,206.167 260,223.5C 261.718,232.723 267.218,237.39 276.5,237.5C 276.178,231.642 276.511,225.975 277.5,220.5C 277.333,253.502 277.5,286.502 278,319.5C 278.785,321.286 279.951,322.786 281.5,324C 286.25,324.223 290.916,324.723 295.5,325.5C 295.5,374.167 295.5,422.833 295.5,471.5C 196.904,472.498 98.2371,472.831 -0.5,472.5C -0.5,317.833 -0.5,163.167 -0.5,8.5C 0.646381,6.52496 2.31305,5.02496 4.5,4C 20.1631,3.50008 35.8298,3.33341 51.5,3.5 Z"/></g>
<g><path style="opacity:1" fill="#3c97d3" d="M 51.5,3.5 C 130.834,3.33334 210.167,3.5 289.5,4C 292.663,5.47978 294.496,7.97978 295,11.5C 295.5,23.1619 295.667,34.8286 295.5,46.5C 259.336,47.3325 223.002,47.8325 186.5,48C 184.622,49.5429 183.122,51.3762 182,53.5C 181.5,60.1583 181.334,66.825 181.5,73.5C 177.486,73.3345 173.486,73.5012 169.5,74C 164.173,77.4362 163.173,81.9362 166.5,87.5C 167.5,88.3333 168.5,89.1667 169.5,90C 173.486,90.4988 177.486,90.6655 181.5,90.5C 181.334,97.175 181.5,103.842 182,110.5C 183.122,112.624 184.622,114.457 186.5,116C 223.002,116.167 259.336,116.667 295.5,117.5C 294.668,140.663 294.168,163.996 294,187.5C 290.682,190.134 288.349,193.467 287,197.5C 285.644,205.095 285.144,212.762 285.5,220.5C 282.833,220.5 280.167,220.5 277.5,220.5C 276.511,225.975 276.178,231.642 276.5,237.5C 267.218,237.39 261.718,232.723 260,223.5C 259.667,206.167 259.333,188.833 259,171.5C 257.118,164.622 253.285,159.122 247.5,155C 228.291,147.357 215.124,153.19 208,172.5C 207.667,190.833 207.333,209.167 207,227.5C 204.982,234.046 201.148,239.213 195.5,243C 175.482,251.24 162.316,245.073 156,224.5C 155.667,192.167 155.333,159.833 155,127.5C 153.044,121.876 149.877,117.043 145.5,113C 125.949,103.201 112.116,108.367 104,128.5C 103.667,138.167 103.333,147.833 103,157.5C 97.792,172.522 87.292,179.022 71.5,177C 60.7892,173.624 54.2892,166.457 52,155.5C 51.5,104.834 51.3333,54.1678 51.5,3.5 Z"/></g>
<g><path style="opacity:0.998" fill="#2980ba" d="M 295.5,46.5 C 324.835,46.3334 354.169,46.5 383.5,47C 386.573,47.7386 388.74,49.5719 390,52.5C 390.5,59.1583 390.666,65.825 390.5,72.5C 390.5,78.8333 390.5,85.1667 390.5,91.5C 390.666,98.175 390.5,104.842 390,111.5C 388.52,114.663 386.02,116.496 382.5,117C 353.502,117.5 324.502,117.667 295.5,117.5C 259.336,116.667 223.002,116.167 186.5,116C 184.622,114.457 183.122,112.624 182,110.5C 181.5,103.842 181.334,97.175 181.5,90.5C 181.5,84.8333 181.5,79.1667 181.5,73.5C 181.334,66.825 181.5,60.1583 182,53.5C 183.122,51.3762 184.622,49.5429 186.5,48C 223.002,47.8325 259.336,47.3325 295.5,46.5 Z"/></g>
<g><path style="opacity:0.971" fill="#95a5a6" d="M 390.5,72.5 C 399.984,71.9398 409.317,72.7732 418.5,75C 431.827,83.2671 436.827,95.2671 433.5,111C 436.402,124.624 432.736,135.957 422.5,145C 384.287,163.273 345.954,181.273 307.5,199C 305.513,200.319 304.346,202.152 304,204.5C 303.501,209.823 303.334,215.156 303.5,220.5C 297.5,220.5 291.5,220.5 285.5,220.5C 285.144,212.762 285.644,205.095 287,197.5C 288.349,193.467 290.682,190.134 294,187.5C 294.168,163.996 294.668,140.663 295.5,117.5C 295.333,139.836 295.5,162.169 296,184.5C 334.272,165.948 372.772,147.781 411.5,130C 413.049,128.786 414.215,127.286 415,125.5C 415.95,115.067 415.617,104.734 414,94.5C 413.097,93.2986 411.931,92.4652 410.5,92C 403.842,91.5004 397.175,91.3337 390.5,91.5C 390.5,85.1667 390.5,78.8333 390.5,72.5 Z"/></g>
<g><path style="opacity:1" fill="#94a4a5" d="M 181.5,73.5 C 181.5,79.1667 181.5,84.8333 181.5,90.5C 177.486,90.6655 173.486,90.4988 169.5,90C 168.5,89.1667 167.5,88.3333 166.5,87.5C 163.173,81.9362 164.173,77.4362 169.5,74C 173.486,73.5012 177.486,73.3345 181.5,73.5 Z"/></g>
<g><path style="opacity:0.981" fill="#efc319" d="M 277.5,220.5 C 280.167,220.5 282.833,220.5 285.5,220.5C 291.5,220.5 297.5,220.5 303.5,220.5C 306.5,220.5 309.5,220.5 312.5,220.5C 312.667,253.502 312.5,286.502 312,319.5C 310.833,322 309,323.833 306.5,325C 302.848,325.499 299.182,325.665 295.5,325.5C 290.916,324.723 286.25,324.223 281.5,324C 279.951,322.786 278.785,321.286 278,319.5C 277.5,286.502 277.333,253.502 277.5,220.5 Z"/></g>
<g><path style="opacity:0.958" fill="#7e8c8d" d="M 494.5,359.5 C 488.5,359.5 482.5,359.5 476.5,359.5C 477.25,323.948 460.083,303.948 425,299.5C 399.733,300.805 383.066,313.471 375,337.5C 373.7,344.771 373.2,352.104 373.5,359.5C 367.167,359.5 360.833,359.5 354.5,359.5C 352.802,327.429 365.802,303.596 393.5,288C 432.007,273.172 462.84,282.672 486,316.5C 492.918,330.005 495.751,344.338 494.5,359.5 Z M 476.5,359.5 C 442.167,359.5 407.833,359.5 373.5,359.5C 373.2,352.104 373.7,344.771 375,337.5C 383.066,313.471 399.733,300.805 425,299.5C 460.083,303.948 477.25,323.948 476.5,359.5 Z"/></g>
<g><path style="opacity:0.989" fill="#94a4a4" d="M 354.5,359.5 C 360.833,359.5 367.167,359.5 373.5,359.5C 407.833,359.5 442.167,359.5 476.5,359.5C 482.5,359.5 488.5,359.5 494.5,359.5C 498.514,359.334 502.514,359.501 506.5,360C 508.323,360.997 509.99,362.164 511.5,363.5C 511.5,366.5 511.5,369.5 511.5,372.5C 510.254,374.901 508.254,376.401 505.5,377C 501.848,377.499 498.182,377.665 494.5,377.5C 474.34,376.503 454.007,376.17 433.5,376.5C 427.833,376.5 422.167,376.5 416.5,376.5C 410.5,376.5 404.5,376.5 398.5,376.5C 392.833,376.5 387.167,376.5 381.5,376.5C 372.651,376.174 363.984,376.507 355.5,377.5C 355.167,377.5 354.833,377.5 354.5,377.5C 350.033,377.867 345.7,377.367 341.5,376C 337.329,372.146 336.496,367.646 339,362.5C 339.903,361.299 341.069,360.465 342.5,360C 346.486,359.501 350.486,359.334 354.5,359.5 Z"/></g>
<g><path style="opacity:0.988" fill="#efc319" d="M 433.5,376.5 C 454.007,376.17 474.34,376.503 494.5,377.5C 494.667,419.168 494.5,460.835 494,502.5C 492.833,504.333 491.333,505.833 489.5,507C 446.5,507.667 403.5,507.667 360.5,507C 358.714,506.215 357.214,505.049 356,503.5C 354.517,461.561 354.017,419.561 354.5,377.5C 354.833,377.5 355.167,377.5 355.5,377.5C 363.833,377.5 372.167,377.5 380.5,377.5C 380.17,398.007 380.503,418.34 381.5,438.5C 383.476,445.488 387.809,447.655 394.5,445C 396.734,443.362 398.067,441.195 398.5,438.5C 399.497,418.34 399.83,398.007 399.5,377.5C 404.833,377.5 410.167,377.5 415.5,377.5C 415.172,389.678 415.505,401.678 416.5,413.5C 416.84,416.675 418.507,418.841 421.5,420C 425.793,421.202 429.293,420.035 432,416.5C 433.444,403.24 433.944,389.907 433.5,376.5 Z"/></g>
<g><path style="opacity:1" fill="#ceba43" d="M 355.5,377.5 C 363.984,376.507 372.651,376.174 381.5,376.5C 381.5,397.167 381.5,417.833 381.5,438.5C 380.503,418.34 380.17,398.007 380.5,377.5C 372.167,377.5 363.833,377.5 355.5,377.5 Z"/></g>
<g><path style="opacity:1" fill="#3c97d2" d="M 381.5,376.5 C 387.167,376.5 392.833,376.5 398.5,376.5C 398.5,397.167 398.5,417.833 398.5,438.5C 398.067,441.195 396.734,443.362 394.5,445C 387.809,447.655 383.476,445.488 381.5,438.5C 381.5,417.833 381.5,397.167 381.5,376.5 Z"/></g>
<g><path style="opacity:1" fill="#c1b74e" d="M 398.5,376.5 C 404.5,376.5 410.5,376.5 416.5,376.5C 416.5,388.833 416.5,401.167 416.5,413.5C 415.505,401.678 415.172,389.678 415.5,377.5C 410.167,377.5 404.833,377.5 399.5,377.5C 399.83,398.007 399.497,418.34 398.5,438.5C 398.5,417.833 398.5,397.167 398.5,376.5 Z"/></g>
<g><path style="opacity:1" fill="#3e97d0" d="M 416.5,376.5 C 422.167,376.5 427.833,376.5 433.5,376.5C 433.944,389.907 433.444,403.24 432,416.5C 429.293,420.035 425.793,421.202 421.5,420C 418.507,418.841 416.84,416.675 416.5,413.5C 416.5,401.167 416.5,388.833 416.5,376.5 Z"/></g>
<g><path style="opacity:0.989" fill="#d1d3d1" d="M 295.5,471.5 C 299.582,471.344 303.582,471.844 307.5,473C 309.815,474.109 311.315,475.943 312,478.5C 312.667,486.167 312.667,493.833 312,501.5C 310.833,504 309,505.833 306.5,507C 205.833,507.667 105.167,507.667 4.5,507C 2.31305,505.975 0.646381,504.475 -0.5,502.5C -0.5,492.5 -0.5,482.5 -0.5,472.5C 98.2371,472.831 196.904,472.498 295.5,471.5 Z"/></g>
</svg>
