<svg xmlns="http://www.w3.org/2000/svg" xmlns:xlink="http://www.w3.org/1999/xlink" width="132.506" height="115.004" viewBox="0 0 132.506 115.004">
  <defs>
    <clipPath id="clip-path">
      <rect id="Rectangle_56485" data-name="Rectangle 56485" width="88.548" height="78.924" rx="6" fill="#635d86"/>
    </clipPath>
  </defs>
  <g id="Group_183741" data-name="Group 183741" transform="translate(-15136.14 -11201.821)">
    <g id="Group_183704" data-name="Group 183704" transform="translate(15166.69 11228.265)">
      <g id="Group_162656" data-name="Group 162656" transform="translate(0.62 0)">
        <rect id="Rectangle_43343" data-name="Rectangle 43343" width="87.929" height="78.371" rx="6" fill="#635d86"/>
      </g>
      <g id="Mask_Group_30501" data-name="Mask Group 30501" transform="translate(0 0)" clip-path="url(#clip-path)">
        <g id="Group_183729" data-name="Group 183729" transform="translate(16.215 -1.353)">
          <g id="Group_183728" data-name="Group 183728" transform="translate(0 0)">
            <path id="Path_143555" data-name="Path 143555" d="M402.078,55.756a1.584,1.584,0,0,0,1.584-1.584v-9.59h-3.169v9.59A1.584,1.584,0,0,0,402.078,55.756Z" transform="translate(-388.028 -44.34)" fill="#ea9c9c"/>
            <path id="Path_143556" data-name="Path 143556" d="M335.926,59.543a2.668,2.668,0,0,0,2.668-2.668v-13.6h-5.336v13.6A2.668,2.668,0,0,0,335.926,59.543Z" transform="translate(-333.258 -43.277)" fill="#ea9c9c"/>
            <path id="Path_143557" data-name="Path 143557" d="M378.935,50.169a.792.792,0,0,0,.792-.792v-4.8h-1.585v4.8A.792.792,0,0,0,378.935,50.169Z" transform="translate(-369.821 -44.34)" fill="#ea9c9c"/>
            <path id="Path_143558" data-name="Path 143558" d="M465.171,120.518a1.584,1.584,0,0,0-1.584,1.584V135.76a1.584,1.584,0,0,0,3.169,0V122.1A1.584,1.584,0,0,0,465.171,120.518Z" transform="translate(-439.424 -106.197)" fill="#ea9c9c"/>
            <path id="Path_143559" data-name="Path 143559" d="M421.431,113.214a.792.792,0,0,0,.792-.792v-6.829a.792.792,0,0,0-1.584,0v6.829A.792.792,0,0,0,421.431,113.214Z" transform="translate(-404.438 -93.394)" fill="#ea9c9c"/>
            <path id="Path_143560" data-name="Path 143560" d="M424.841,53.465A2.139,2.139,0,0,1,426.99,55.6L427,59.76a1.631,1.631,0,0,0,1.54,1.648,1.587,1.587,0,0,0,1.634-1.586V54.611a2.1,2.1,0,0,1,2.1-2.1h2.088a2.1,2.1,0,0,1,2.1,2.1h.048V82.585a.858.858,0,0,0,.858.858h.323a.858.858,0,0,1,.858.858v2.656a3.169,3.169,0,0,0,3.169,3.169h0a3.169,3.169,0,0,0,3.169-3.169V86.5a2.291,2.291,0,0,1,2.291-2.291h1.273a2.291,2.291,0,0,1,2.291,2.291v2.259a1.369,1.369,0,0,0,1.37,1.369h3.526a1.365,1.365,0,0,0,1.336-1.387.858.858,0,0,1,.858-.841h0a.858.858,0,0,1,.858.858v5.178a.858.858,0,0,0,.858.858h.007a.858.858,0,0,0,.858-.858V90.448a.883.883,0,0,1,.774-.891.858.858,0,0,1,.942.854v1.115h.007v4.259a1.724,1.724,0,0,0,1.724,1.724h0a1.724,1.724,0,0,0,1.723-1.724v-.749a.858.858,0,0,1,.858-.858h1.731a.858.858,0,0,1,.858.858v.749a1.724,1.724,0,0,0,1.724,1.724h0a1.723,1.723,0,0,0,1.724-1.724V94.556a1.763,1.763,0,0,1,1.609-1.779,1.724,1.724,0,0,1,1.838,1.72v4.284a1.763,1.763,0,0,0,1.609,1.779,1.724,1.724,0,0,0,1.838-1.72V44.582H423.839V52.43A1.022,1.022,0,0,0,424.841,53.465Z" transform="translate(-407.045 -44.34)" fill="#ea9c9c"/>
            <path id="Path_143562" data-name="Path 143562" d="M707.083,317.478h0c-.167,0-.3-.271-.3-.605l.221-4.846.385,4.846C707.385,317.207,707.25,317.478,707.083,317.478Z" transform="translate(-637.529 -262.2)" fill="#fff" opacity="0.61"/>
            <path id="Path_143563" data-name="Path 143563" d="M465.037,182.042h0c-.167,0-.3-.271-.3-.605l.221-4.846.385,4.846C465.339,181.771,465.2,182.042,465.037,182.042Z" transform="translate(-440.358 -151.874)" fill="#fff" opacity="0.61"/>
            <path id="Path_143564" data-name="Path 143564" d="M633.992,299.127h0c-.167,0-.3-.271-.3-.605l.221-4.846.385,4.846C634.294,298.856,634.159,299.127,633.992,299.127Z" transform="translate(-577.989 -247.252)" fill="#fff" opacity="0.61"/>
            <path id="Path_143565" data-name="Path 143565" d="M493.524,228.587h0c-.139,0-.252-.226-.252-.5l.184-4.035.32,4.035C493.776,228.361,493.663,228.587,493.524,228.587Z" transform="translate(-463.605 -190.533)" fill="#fff" opacity="0.61"/>
            <path id="Path_143566" data-name="Path 143566" d="M444.757,104.644h0c-.167,0-.3-.271-.3-.606l.221-4.846.385,4.846C445.06,104.372,444.925,104.644,444.757,104.644Z" transform="translate(-423.839 -88.825)" fill="#fff" opacity="0.61"/>
          </g>
        </g>
      </g>
    </g>
    <g id="Group_183734" data-name="Group 183734" transform="translate(15136.14 11201.821)">
      <path id="Path_143470" data-name="Path 143470" d="M1202.1,999.786a3.306,3.306,0,1,1,3.306-3.306A3.31,3.31,0,0,1,1202.1,999.786Zm0-5.567a2.262,2.262,0,1,0,2.262,2.262A2.264,2.264,0,0,0,1202.1,994.219Z" transform="translate(-1091.909 -910.507)" fill="#d8be33"/>
      <path id="Path_143569" data-name="Path 143569" d="M1200.719,997.026a1.926,1.926,0,1,1,1.926-1.926A1.928,1.928,0,0,1,1200.719,997.026Zm0-3.243a1.318,1.318,0,1,0,1.317,1.317A1.319,1.319,0,0,0,1200.719,993.783Z" transform="translate(-1106.281 -993.175)" fill="#d8be33"/>
      <path id="Path_143471" data-name="Path 143471" d="M1008.014,941.507h0a.3.3,0,0,1-.3-.252l-.3-1.816-1.816-.3a.3.3,0,0,1,0-.594l1.816-.3.3-1.815a.3.3,0,0,1,.595,0l.3,1.815,1.816.3a.3.3,0,0,1,0,.594l-1.816.3-.3,1.816A.3.3,0,0,1,1008.014,941.507Zm-.509-2.664.224.037a.3.3,0,0,1,.249.248l.037.224.037-.224a.3.3,0,0,1,.248-.248l.224-.037-.224-.037a.3.3,0,0,1-.248-.248l-.037-.224-.037.224a.3.3,0,0,1-.249.248Z" transform="translate(-1005.349 -887.862)" fill="#7b9bb5"/>
      <path id="Path_143472" data-name="Path 143472" d="M1048.348,837.983h0a.3.3,0,0,1-.3-.252l-.3-1.816-1.816-.3a.3.3,0,0,1,0-.595l1.816-.3.3-1.816a.3.3,0,0,1,.594,0l.3,1.816,1.816.3a.3.3,0,0,1,0,.595l-1.816.3-.3,1.816A.3.3,0,0,1,1048.348,837.983Zm-.51-2.664.224.037a.3.3,0,0,1,.248.248l.037.224.037-.224a.3.3,0,0,1,.248-.248l.224-.037-.224-.037a.3.3,0,0,1-.248-.248l-.037-.224-.037.224a.3.3,0,0,1-.248.248Z" transform="translate(-1021.788 -794.554)" fill="#d8be33"/>
      <path id="Path_143473" data-name="Path 143473" d="M1182.353,883.837h0a.388.388,0,0,1-.382-.324l-.385-2.335-2.335-.384a.388.388,0,0,1,0-.765l2.335-.385.385-2.335a.387.387,0,0,1,.764,0l.385,2.335,2.335.385a.388.388,0,0,1,0,.765l-2.335.384-.385,2.335A.388.388,0,0,1,1182.353,883.837Zm-.655-3.426.288.047a.387.387,0,0,1,.319.32l.048.288.047-.288a.387.387,0,0,1,.319-.32l.288-.047-.288-.047a.387.387,0,0,1-.319-.319l-.047-.289-.048.289a.387.387,0,0,1-.319.319Z" transform="translate(-1121.492 -864.822)" fill="#666bb1"/>
      <path id="Path_143570" data-name="Path 143570" d="M1181.519,882.169h0a.293.293,0,0,1-.289-.245l-.291-1.767-1.767-.291a.293.293,0,0,1,0-.579l1.767-.291.291-1.766a.293.293,0,0,1,.578,0L1182.1,879l1.767.291a.293.293,0,0,1,0,.579l-1.767.291-.291,1.767A.293.293,0,0,1,1181.519,882.169Zm-.5-2.592.218.036a.293.293,0,0,1,.241.242l.036.218.036-.218a.294.294,0,0,1,.242-.242l.218-.036-.218-.036a.294.294,0,0,1-.242-.242l-.036-.218-.036.218a.293.293,0,0,1-.241.242Z" transform="translate(-1059.637 -819.133)" fill="#666bb1"/>
      <path id="Path_143475" data-name="Path 143475" d="M1133.294,989.93V950.072h-33.54q.052,19.893.1,39.785Z" transform="translate(-1075.859 -890.669)" fill="#d4e6f5"/>
      <g id="Group_183700" data-name="Group 183700" transform="translate(20.271 55.63)">
        <path id="Path_143478" data-name="Path 143478" d="M1129.618,968.4h-17.76a4.863,4.863,0,0,1-4.9-4.817v-.16a4.863,4.863,0,0,1,4.9-4.817h4.186a1.415,1.415,0,1,1,0,2.83h-4.186a2.056,2.056,0,0,0-2.068,1.987v.16a2.056,2.056,0,0,0,2.068,1.988h17.76a2.056,2.056,0,0,0,2.068-1.988v-.16a2.056,2.056,0,0,0-2.068-1.987h-8a1.415,1.415,0,0,1,0-2.83h8a4.863,4.863,0,0,1,4.9,4.817v.16A4.863,4.863,0,0,1,1129.618,968.4Z" transform="translate(-1100.344 -951.292)" fill="#323569"/>
        <path id="Path_143479" data-name="Path 143479" d="M1114.127,989.27h-2.438a1.415,1.415,0,1,1,0-2.83h2.438a1.415,1.415,0,0,1,0,2.83Z" transform="translate(-1101.916 -964.5)" fill="#323569"/>
        <path id="Path_143480" data-name="Path 143480" d="M1132.684,989.27h-2.438a1.415,1.415,0,0,1,0-2.83h2.438a1.415,1.415,0,0,1,0,2.83Z" transform="translate(-1110.723 -964.5)" fill="#323569"/>
        <path id="Path_143481" data-name="Path 143481" d="M1150.578,989.27h-2.437a1.415,1.415,0,1,1,0-2.83h2.438a1.415,1.415,0,0,1,0,2.83Z" transform="translate(-1119.214 -964.5)" fill="#323569"/>
        <path id="Path_143482" data-name="Path 143482" d="M1114.127,1003.85h-2.438a1.415,1.415,0,1,1,0-2.83h2.438a1.415,1.415,0,0,1,0,2.83Z" transform="translate(-1101.916 -971.419)" fill="#323569"/>
        <path id="Path_143483" data-name="Path 143483" d="M1132.684,1003.85h-2.438a1.415,1.415,0,0,1,0-2.83h2.438a1.415,1.415,0,0,1,0,2.83Z" transform="translate(-1110.723 -971.419)" fill="#323569"/>
        <path id="Path_143484" data-name="Path 143484" d="M1150.578,1003.85h-2.437a1.415,1.415,0,1,1,0-2.83h2.438a1.415,1.415,0,0,1,0,2.83Z" transform="translate(-1119.214 -971.419)" fill="#323569"/>
        <path id="Path_143485" data-name="Path 143485" d="M1114.127,1018.429h-2.438a1.415,1.415,0,1,1,0-2.829h2.438a1.415,1.415,0,0,1,0,2.829Z" transform="translate(-1101.916 -978.338)" fill="#323569"/>
        <path id="Path_143486" data-name="Path 143486" d="M1132.684,1018.429h-2.438a1.415,1.415,0,0,1,0-2.829h2.438a1.415,1.415,0,0,1,0,2.829Z" transform="translate(-1110.723 -978.338)" fill="#323569"/>
        <path id="Path_143487" data-name="Path 143487" d="M1150.578,1018.429h-2.437a1.415,1.415,0,1,1,0-2.829h2.438a1.415,1.415,0,0,1,0,2.829Z" transform="translate(-1119.214 -978.338)" fill="#323569"/>
        <path id="Path_143488" data-name="Path 143488" d="M1133.742,992.092h-37.959a1.415,1.415,0,0,1-1.415-1.415V946.1a1.415,1.415,0,0,1,1.415-1.415h37.959a1.415,1.415,0,0,1,1.415,1.415v44.575A1.415,1.415,0,0,1,1133.742,992.092Zm-36.544-2.83h35.129V947.516H1097.2Z" transform="translate(-1094.369 -944.687)" fill="#323569"/>
      </g>
    </g>
    <g id="Group_183739" data-name="Group 183739" transform="translate(15198.377 11305.965)">
      <g id="Group_183738" data-name="Group 183738" transform="translate(0)">
        <path id="Path_143571" data-name="Path 143571" d="M490.224,392.724a15.7,15.7,0,0,0-2.194-.048h-6.917q-6.917,0-13.834,0c.038-.089.123-1.931-.236-1.725a1.053,1.053,0,0,0,.527-1.058,1.086,1.086,0,0,0-1.089-.916H440.146a1.257,1.257,0,0,0-1.073.576.89.89,0,0,0-.1.792c-2.707,0-5.411-.161-8.118-.209-2.188-.039-5.029-.372-7.1.429-1.687.652-1.555,3.1.416,3.1h22.214a1.373,1.373,0,0,1,1.356,1.413v2.236a2.419,2.419,0,0,0,2.42,2.42h36.4c1.491,0,3.8.424,5.021-.425C493.818,397.759,492.941,393.116,490.224,392.724Z" transform="translate(-422.585 -388.98)" fill="#b76868"/>
        <path id="Path_143572" data-name="Path 143572" d="M505.8,415.131h0c0-.3.481-.537,1.074-.536l8.6.4-8.6.676C506.282,415.669,505.8,415.428,505.8,415.131Z" transform="translate(-478.429 -406.169)" fill="#fff" opacity="0.61"/>
        <path id="Path_143573" data-name="Path 143573" d="M475.1,391.764h0c0-.3.481-.537,1.075-.537l8.6.4-8.6.676C475.584,392.3,475.1,392.061,475.1,391.764Z" transform="translate(-457.828 -390.489)" fill="#fff" opacity="0.61"/>
      </g>
    </g>
    <g id="Group_183740" data-name="Group 183740" transform="translate(15222.497 11222.07)">
      <path id="Path_143567" data-name="Path 143567" d="M551.335,389.269l6.965-5.1a2.113,2.113,0,0,0,.864-1.7h0a2.112,2.112,0,0,0-2.12-2.112l-9.478.035Z" transform="translate(-516.734 -301.057)" fill="#606060" opacity="0.32"/>
      <path id="Path_143568" data-name="Path 143568" d="M521.161,225.465V248h.9l-.846,40.57a2.255,2.255,0,0,1-2.238,2.192h-15.8a5.168,5.168,0,0,0-5.168,5.168v7.757h2.93v-7.757a2.238,2.238,0,0,1,2.238-2.239h15.8a5.2,5.2,0,0,0,5.166-5.061l.85-40.77a2.106,2.106,0,0,0,1.374-1.972V228.3a2.831,2.831,0,0,0-2.832-2.832Z" transform="translate(-491.763 -223.004)" fill="#606060" opacity="0.3" style="mix-blend-mode: multiply;isolation: isolate"/>
      <g id="Group_183732" data-name="Group 183732" transform="translate(0 0)">
        <path id="Path_143546" data-name="Path 143546" d="M497.123,308l-8.553-.005a3.125,3.125,0,0,1-3.128-3.641l.8-6.507a4.2,4.2,0,0,1,4.025-3.636l14.381.008a4.2,4.2,0,0,0,4.025-3.636l7.582-61.521" transform="translate(-485.414 -224.816)" fill="none" stroke="#5b3725" stroke-width="2"/>
        <g id="Group_183721" data-name="Group 183721" transform="translate(4.343 77.68)">
          <g id="Group_183720" data-name="Group 183720">
            <path id="Path_143547" data-name="Path 143547" d="M525.138,377.156s-28.312-.047-28.372-.054c-1.019-.125-2.133,2.131-2.488,5.038a9.158,9.158,0,0,0,.418,4.741.942.942,0,0,0,.935.726l28.472-.029c.9-.091,1.566-1.286,1.734-2.65l.154-5.3C526.16,378.263,526.479,377.157,525.138,377.156Z" transform="translate(-494.169 -377.097)" fill="#92a6b7"/>
            <path id="Path_143548" data-name="Path 143548" d="M525.146,377.189l-15.34-.026a1.486,1.486,0,0,0-1.489,1.486h0a1.486,1.486,0,0,1-1.486,1.487H494.682a14.127,14.127,0,0,0-.4,2.036c-.058.471-.089.927-.1,1.365h14.01a4.083,4.083,0,0,1,3.46,1.912,4.563,4.563,0,0,0,3.855,2.171l8.6-.009c.9-.091,1.566-1.286,1.734-2.65l.154-5.3C526.167,378.3,526.487,377.19,525.146,377.189Z" transform="translate(-494.177 -377.13)" fill="#ea9c9c"/>
            <path id="Path_143549" data-name="Path 143549" d="M523.4,390.98l-26.341-.016a2.121,2.121,0,0,1-2.123-2.471l-.294,2.385a2.122,2.122,0,0,0,2.123,2.471l26.341.016a2.849,2.849,0,0,0,2.732-2.468l.294-2.385A2.848,2.848,0,0,1,523.4,390.98Z" transform="translate(-494.399 -382.84)" fill="#d4e6f5" opacity="0.51" style="mix-blend-mode: multiply;isolation: isolate"/>
            <path id="Path_143550" data-name="Path 143550" d="M494.281,383.706c.355-2.906.563-5.035,2.488-5.037l28.372.055c.519,0,.787.167.914.449.159-1.146.274-2.016-.914-2.017,0,0-28.312-.047-28.372-.054-1.019-.125-2.133,2.131-2.488,5.038a13.493,13.493,0,0,0-.081,2.489C494.218,384.328,494.243,384.022,494.281,383.706Z" transform="translate(-494.172 -377.097)" fill="#d4e6f5" opacity="0.45" style="mix-blend-mode: screen;isolation: isolate"/>
          </g>
        </g>
        <g id="Group_183723" data-name="Group 183723" transform="translate(25.555)">
          <path id="Path_143551" data-name="Path 143551" d="M539.988,245.929h-.677a2.358,2.358,0,0,1-2.36-2.747l2.457-19.934a3.167,3.167,0,0,1,3.036-2.744h.677a2.358,2.358,0,0,1,2.36,2.747l-2.456,19.934A3.167,3.167,0,0,1,539.988,245.929Z" transform="translate(-536.93 -220.504)" fill="#666bb1"/>
          <g id="Group_183722" data-name="Group 183722" transform="translate(0 0.213)" opacity="0.51" style="mix-blend-mode: multiply;isolation: isolate">
            <path id="Path_143552" data-name="Path 143552" d="M544.133,220.933l-2.385,19.356a3.168,3.168,0,0,1-3.036,2.744h-.677a2.466,2.466,0,0,1-1.012-.212l-.071.577a2.358,2.358,0,0,0,2.36,2.747h.677a3.167,3.167,0,0,0,3.036-2.743l2.456-19.934A2.381,2.381,0,0,0,544.133,220.933Z" transform="translate(-536.93 -220.933)" fill="#666bb1" opacity="0.42" style="mix-blend-mode: multiply;isolation: isolate"/>
          </g>
        </g>
        <path id="Path_143553" data-name="Path 143553" d="M555.693,382.59c-.355,2.906-1.469,5.162-2.488,5.038s-1.557-2.581-1.2-5.488,1.469-5.162,2.488-5.038S556.048,379.683,555.693,382.59Z" transform="translate(-518.916 -299.417)" fill="#8d5959"/>
        <path id="Path_143554" data-name="Path 143554" d="M555.906,386.16c-.116.944-.578,1.665-1.033,1.61s-.73-.867-.615-1.811.578-1.665,1.033-1.61S556.022,385.216,555.906,386.16Z" transform="translate(-520.094 -303.07)" fill="#5b3725"/>
      </g>
    </g>
    <g id="Group_183737" data-name="Group 183737" transform="translate(15189.534 11279.526)">
      <g id="Group_183736" data-name="Group 183736">
        <path id="Path_143508" data-name="Path 143508" d="M365.179,167.7l.419,29.842c0,.606,5.306,1.875,11.85,1.875s11.851-1.269,11.851-1.875l.419-29.842Z" transform="translate(-362.552 -167.543)" fill="#7a7f89"/>
        <path id="Path_143509" data-name="Path 143509" d="M388.643,169.266H364.07a.785.785,0,0,1-.786-.786h0a.785.785,0,0,1,.786-.786h24.573a.785.785,0,0,1,.786.786h0A.785.785,0,0,1,388.643,169.266Z" transform="translate(-361.496 -167.543)" fill="#5a657e"/>
        <path id="Path_143510" data-name="Path 143510" d="M374.282,197.147a11.872,11.872,0,0,1-8.156.239v4.567c0,.606,5.306,1.875,11.85,1.875s11.851-1.269,11.851-1.875l.294-26.333C388.461,183.586,384.1,193.089,374.282,197.147Z" transform="translate(-363.08 -171.958)" fill="#313f5e" opacity="0.251" style="mix-blend-mode: multiply;isolation: isolate"/>
        <path id="Path_143511" data-name="Path 143511" d="M376.72,167.353v.021h-6.179a1.071,1.071,0,0,0-1.071,1.071v2.509a.728.728,0,0,0,.583.729.7.7,0,0,0,.819-.691v-.519a2.273,2.273,0,0,1,2.533-2.26l.148.019a3.75,3.75,0,0,1,3.166,3.739v3.015a1.537,1.537,0,0,0,1.4,1.562,1.481,1.481,0,0,0,1.561-1.479V170.4a.81.81,0,0,1,.55-.779,1.109,1.109,0,0,1,.949.139.782.782,0,0,1,.321.654v7a1,1,0,0,0,.748.969h0a1.357,1.357,0,0,1,1.014,1.313v3.444a1.78,1.78,0,0,0,1.562,1.8,1.732,1.732,0,0,0,1.9-1.724V169.5a.77.77,0,0,1,.767-.77h0a1.108,1.108,0,0,1,.177.014.8.8,0,0,1,.646.8v5.1a1.538,1.538,0,0,0,1.4,1.563,1.481,1.481,0,0,0,1.56-1.479v-6.086a1.3,1.3,0,0,0-1.3-1.3Z" transform="translate(-364.943 -167.351)" fill="#aa6464"/>
        <path id="Path_143512" data-name="Path 143512" d="M401.935,195.582h0a.55.55,0,0,1-.55-.55l.329-6.954.771,6.954A.55.55,0,0,1,401.935,195.582Z" transform="translate(-382.726 -178.9)" fill="#fff" opacity="0.61"/>
        <path id="Path_143513" data-name="Path 143513" d="M413,180.409h0a.275.275,0,0,1-.275-.275l.164-3.477.385,3.477A.275.275,0,0,1,413,180.409Z" transform="translate(-389.045 -172.536)" fill="#fff" opacity="0.61"/>
        <path id="Path_143514" data-name="Path 143514" d="M397.365,186.264h0a.3.3,0,0,1-.3-.3l.182-3.848.427,3.848A.3.3,0,0,1,397.365,186.264Z" transform="translate(-380.317 -175.575)" fill="#fff" opacity="0.61"/>
        <path id="Path_143515" data-name="Path 143515" d="M386.77,180.8h0a.3.3,0,0,1-.3-.3l.182-3.848.426,3.848A.3.3,0,0,1,386.77,180.8Z" transform="translate(-374.413 -172.532)" fill="#fff" opacity="0.61"/>
        <path id="Path_143516" data-name="Path 143516" d="M369.831,173.319h0a.152.152,0,0,1-.152-.152l.091-1.924.213,1.924A.152.152,0,0,1,369.831,173.319Z" transform="translate(-365.059 -169.52)" fill="#fff" opacity="0.61"/>
        <g id="Group_183710" data-name="Group 183710" transform="translate(3.046 5.316)" opacity="0.43" style="mix-blend-mode: multiply;isolation: isolate">
          <path id="Path_143517" data-name="Path 143517" d="M389.827,211.121a13.7,13.7,0,0,1-2,3.018,10.88,10.88,0,0,1-8.028,3.635c-4.868.2-8.71-1.161-11.427-4.029a14.17,14.17,0,0,1-2.248-3.19V212.8a14.366,14.366,0,0,0,1.4,1.739c2.775,2.934,6.6,4.417,11.366,4.417q.473,0,.959-.019a12.007,12.007,0,0,0,8.854-4.026,13.521,13.521,0,0,0,1.126-1.471Z" transform="translate(-366.126 -196.739)" fill="#313f5e"/>
          <path id="Path_143518" data-name="Path 143518" d="M418.458,179.934a.582.582,0,0,0,.528.578v-1.156A.582.582,0,0,0,418.458,179.934Z" transform="translate(-395.285 -179.356)" fill="#313f5e"/>
          <path id="Path_143519" data-name="Path 143519" d="M366.126,180.541a.578.578,0,0,0,0-.928Z" transform="translate(-366.126 -179.499)" fill="#313f5e"/>
        </g>
        <path id="Path_143520" data-name="Path 143520" d="M361.523,178.2h-2.208s-2.083,21.791,16.676,21.038c14.57-.584,12.947-21.038,12.947-21.038H386.9" transform="translate(-359.247 -173.397)" fill="none" stroke="#8d8d8d" stroke-linecap="round" stroke-width="1"/>
        <path id="Path_143521" data-name="Path 143521" d="M389.713,171.437l.011-.393h-24.5l.011.393Z" transform="translate(-362.579 -169.409)" fill="#313f5e" opacity="0.21" style="mix-blend-mode: multiply;isolation: isolate"/>
        <line id="Line_833" data-name="Line 833" y1="0.084" x2="5.809" transform="translate(5.468 0.396)" fill="none" stroke="#fff" stroke-linecap="round" stroke-width="0.947" opacity="0.61"/>
        <path id="Path_143522" data-name="Path 143522" d="M369.47,168.637v.629h1.885a2.26,2.26,0,0,1,2.051-.861l.148.02a3.589,3.589,0,0,1,1.844.842h11.464a.769.769,0,0,1,.637-.341,1.1,1.1,0,0,1,.177.014.746.746,0,0,1,.5.327h3.11v-.423a1.3,1.3,0,0,0-.7-1.148H370.041A1.067,1.067,0,0,0,369.47,168.637Z" transform="translate(-364.943 -167.543)" fill="#ea9c9c"/>
      </g>
    </g>
  </g>
</svg>
